<svg xmlns="http://www.w3.org/2000/svg" viewBox="0 0 1600 1000" preserveAspectRatio="xMidYMid slice">
  <defs>
    <linearGradient id="sky" x1="0" y1="0" x2="0" y2="1">
      <stop offset="0" stop-color="#ffe2bd"/>
      <stop offset="1" stop-color="#f0a06a"/>
    </linearGradient>
    <linearGradient id="sea" x1="0" y1="0" x2="0" y2="1">
      <stop offset="0" stop-color="#2f8ca0"/>
      <stop offset="1" stop-color="#5f3a2f"/>
    </linearGradient>
  </defs>
  <rect width="1600" height="1000" fill="url(#sky)"/><circle cx="942" cy="190" r="85" fill="#fff2d5" opacity="0.95"/><polygon points="0,1000 0,500 0,249 267,417 533,169 800,456 1067,260 1333,394 1600,267 1600,500 1600,1000" fill="#b06a4a"/><polygon points="0,1000 0,620 0,347 229,554 457,420 686,566 914,333 1143,541 1371,423 1600,537 1600,620 1600,1000" fill="#8a4a38"/><polygon points="0,1000 0,796 200,791 400,796 600,789 800,803 1000,791 1200,784 1400,785 1600,776 1600,1000" fill="#5f3a2f"/>
</svg>