<svg xmlns="http://www.w3.org/2000/svg" viewBox="0 0 1600 1000" preserveAspectRatio="xMidYMid slice">
  <defs>
    <linearGradient id="sky" x1="0" y1="0" x2="0" y2="1">
      <stop offset="0" stop-color="#ffe2bd"/>
      <stop offset="1" stop-color="#f0a06a"/>
    </linearGradient>
    <linearGradient id="sea" x1="0" y1="0" x2="0" y2="1">
      <stop offset="0" stop-color="#2f8ca0"/>
      <stop offset="1" stop-color="#5f3a2f"/>
    </linearGradient>
  </defs>
  <rect width="1600" height="1000" fill="url(#sky)"/><circle cx="1203" cy="284" r="85" fill="#fff2d5" opacity="0.95"/><rect x="1143" y="610" width="119" height="6" rx="3" fill="#fff2d5" opacity="0.50"/><rect x="1148" y="632" width="109" height="6" rx="3" fill="#fff2d5" opacity="0.44"/><rect x="1153" y="654" width="99" height="6" rx="3" fill="#fff2d5" opacity="0.38"/><rect x="1158" y="676" width="88" height="6" rx="3" fill="#fff2d5" opacity="0.32"/><rect x="1164" y="698" width="78" height="6" rx="3" fill="#fff2d5" opacity="0.26"/><rect x="1169" y="720" width="68" height="6" rx="3" fill="#fff2d5" opacity="0.20"/><polygon points="0,1000 0,515 267,491 533,499 800,473 1067,500 1333,510 1600,508 1600,1000" fill="#b06a4a" opacity="0.8"/><rect x="788" y="527" width="62" height="73" fill="#efe4d0" opacity="0.96"/><polygon points="785,527 853,527 819,507" fill="#b25630"/><rect x="796" y="543" width="7" height="10" fill="#5f3a2f" opacity="0.55"/><rect x="816" y="543" width="7" height="10" fill="#5f3a2f" opacity="0.55"/><rect x="836" y="543" width="7" height="10" fill="#5f3a2f" opacity="0.55"/><rect x="796" y="569" width="7" height="10" fill="#5f3a2f" opacity="0.55"/><rect x="816" y="569" width="7" height="10" fill="#5f3a2f" opacity="0.55"/><rect x="836" y="569" width="7" height="10" fill="#5f3a2f" opacity="0.55"/><rect x="1252" y="531" width="51" height="69" fill="#efe4d0" opacity="0.96"/><polygon points="1249,531 1307,531 1278,514" fill="#b25630"/><rect x="1260" y="547" width="7" height="10" fill="#5f3a2f" opacity="0.55"/><rect x="1280" y="547" width="7" height="10" fill="#5f3a2f" opacity="0.55"/><rect x="1260" y="573" width="7" height="10" fill="#5f3a2f" opacity="0.55"/><rect x="1280" y="573" width="7" height="10" fill="#5f3a2f" opacity="0.55"/><rect x="417" y="484" width="37" height="116" fill="#efe4d0" opacity="0.96"/><polygon points="414,484 458,484 436,469" fill="#b25630"/><rect x="425" y="500" width="7" height="10" fill="#5f3a2f" opacity="0.55"/><rect x="425" y="526" width="7" height="10" fill="#5f3a2f" opacity="0.55"/><rect x="425" y="552" width="7" height="10" fill="#5f3a2f" opacity="0.55"/><rect x="425" y="578" width="7" height="10" fill="#5f3a2f" opacity="0.55"/><rect x="379" y="487" width="41" height="113" fill="#f7efe0" opacity="0.96"/><polygon points="376,487 423,487 399,472" fill="#b25630"/><rect x="387" y="503" width="7" height="10" fill="#5f3a2f" opacity="0.55"/><rect x="407" y="503" width="7" height="10" fill="#5f3a2f" opacity="0.55"/><rect x="387" y="529" width="7" height="10" fill="#5f3a2f" opacity="0.55"/><rect x="407" y="529" width="7" height="10" fill="#5f3a2f" opacity="0.55"/><rect x="387" y="555" width="7" height="10" fill="#5f3a2f" opacity="0.55"/><rect x="407" y="555" width="7" height="10" fill="#5f3a2f" opacity="0.55"/><rect x="387" y="581" width="7" height="10" fill="#5f3a2f" opacity="0.55"/><rect x="407" y="581" width="7" height="10" fill="#5f3a2f" opacity="0.55"/><rect x="995" y="512" width="35" height="88" fill="#e9dcc4" opacity="0.96"/><polygon points="992,512 1032,512 1012,498" fill="#b25630"/><rect x="1003" y="528" width="7" height="10" fill="#5f3a2f" opacity="0.55"/><rect x="1003" y="554" width="7" height="10" fill="#5f3a2f" opacity="0.55"/><rect x="1003" y="580" width="7" height="10" fill="#5f3a2f" opacity="0.55"/><rect x="1176" y="537" width="37" height="63" fill="#e9dcc4" opacity="0.96"/><polygon points="1173,537 1215,537 1194,518" fill="#b25630"/><rect x="1184" y="553" width="7" height="10" fill="#5f3a2f" opacity="0.55"/><rect x="1184" y="579" width="7" height="10" fill="#5f3a2f" opacity="0.55"/><rect x="1318" y="488" width="56" height="112" fill="#f7efe0" opacity="0.96"/><polygon points="1315,488 1377,488 1346,473" fill="#b25630"/><rect x="1326" y="504" width="7" height="10" fill="#5f3a2f" opacity="0.55"/><rect x="1346" y="504" width="7" height="10" fill="#5f3a2f" opacity="0.55"/><rect x="1326" y="530" width="7" height="10" fill="#5f3a2f" opacity="0.55"/><rect x="1346" y="530" width="7" height="10" fill="#5f3a2f" opacity="0.55"/><rect x="1326" y="556" width="7" height="10" fill="#5f3a2f" opacity="0.55"/><rect x="1346" y="556" width="7" height="10" fill="#5f3a2f" opacity="0.55"/><rect x="1326" y="582" width="7" height="10" fill="#5f3a2f" opacity="0.55"/><rect x="1346" y="582" width="7" height="10" fill="#5f3a2f" opacity="0.55"/><rect x="348" y="515" width="35" height="85" fill="#efe4d0" opacity="0.96"/><polygon points="345,515 386,515 365,494" fill="#b25630"/><rect x="356" y="531" width="7" height="10" fill="#5f3a2f" opacity="0.55"/><rect x="356" y="557" width="7" height="10" fill="#5f3a2f" opacity="0.55"/><rect x="356" y="583" width="7" height="10" fill="#5f3a2f" opacity="0.55"/><rect x="822" y="513" width="43" height="87" fill="#efe4d0" opacity="0.96"/><polygon points="819,513 868,513 843,494" fill="#b25630"/><rect x="830" y="529" width="7" height="10" fill="#5f3a2f" opacity="0.55"/><rect x="850" y="529" width="7" height="10" fill="#5f3a2f" opacity="0.55"/><rect x="830" y="555" width="7" height="10" fill="#5f3a2f" opacity="0.55"/><rect x="850" y="555" width="7" height="10" fill="#5f3a2f" opacity="0.55"/><rect x="830" y="581" width="7" height="10" fill="#5f3a2f" opacity="0.55"/><rect x="850" y="581" width="7" height="10" fill="#5f3a2f" opacity="0.55"/><rect x="734" y="545" width="61" height="55" fill="#e9dcc4" opacity="0.96"/><polygon points="731,545 798,545 764,524" fill="#b25630"/><rect x="1327" y="549" width="62" height="51" fill="#f7efe0" opacity="0.96"/><polygon points="1324,549 1392,549 1358,534" fill="#b25630"/><rect x="390" y="516" width="56" height="84" fill="#e9dcc4" opacity="0.96"/><polygon points="387,516 448,516 417,503" fill="#b25630"/><rect x="398" y="532" width="7" height="10" fill="#5f3a2f" opacity="0.55"/><rect x="418" y="532" width="7" height="10" fill="#5f3a2f" opacity="0.55"/><rect x="398" y="558" width="7" height="10" fill="#5f3a2f" opacity="0.55"/><rect x="418" y="558" width="7" height="10" fill="#5f3a2f" opacity="0.55"/><rect x="398" y="584" width="7" height="10" fill="#5f3a2f" opacity="0.55"/><rect x="418" y="584" width="7" height="10" fill="#5f3a2f" opacity="0.55"/><rect x="722" y="550" width="48" height="50" fill="#efe4d0" opacity="0.96"/><polygon points="719,550 774,550 746,532" fill="#b25630"/><rect x="333" y="553" width="60" height="47" fill="#efe4d0" opacity="0.96"/><polygon points="330,553 396,553 363,533" fill="#b25630"/><rect x="475" y="557" width="57" height="43" fill="#efe4d0" opacity="0.96"/><polygon points="472,557 535,557 503,542" fill="#b25630"/><rect x="1158" y="481" width="42" height="119" fill="#e9dcc4" opacity="0.96"/><polygon points="1155,481 1203,481 1179,461" fill="#b25630"/><rect x="1166" y="497" width="7" height="10" fill="#5f3a2f" opacity="0.55"/><rect x="1186" y="497" width="7" height="10" fill="#5f3a2f" opacity="0.55"/><rect x="1166" y="523" width="7" height="10" fill="#5f3a2f" opacity="0.55"/><rect x="1186" y="523" width="7" height="10" fill="#5f3a2f" opacity="0.55"/><rect x="1166" y="549" width="7" height="10" fill="#5f3a2f" opacity="0.55"/><rect x="1186" y="549" width="7" height="10" fill="#5f3a2f" opacity="0.55"/><rect x="1166" y="575" width="7" height="10" fill="#5f3a2f" opacity="0.55"/><rect x="1186" y="575" width="7" height="10" fill="#5f3a2f" opacity="0.55"/><rect x="545" y="521" width="37" height="79" fill="#efe4d0" opacity="0.96"/><polygon points="542,521 585,521 563,499" fill="#b25630"/><rect x="553" y="537" width="7" height="10" fill="#5f3a2f" opacity="0.55"/><rect x="553" y="563" width="7" height="10" fill="#5f3a2f" opacity="0.55"/><rect x="131" y="500" width="42" height="100" fill="#e9dcc4" opacity="0.96"/><polygon points="128,500 176,500 152,483" fill="#b25630"/><rect x="139" y="516" width="7" height="10" fill="#5f3a2f" opacity="0.55"/><rect x="159" y="516" width="7" height="10" fill="#5f3a2f" opacity="0.55"/><rect x="139" y="542" width="7" height="10" fill="#5f3a2f" opacity="0.55"/><rect x="159" y="542" width="7" height="10" fill="#5f3a2f" opacity="0.55"/><rect x="139" y="568" width="7" height="10" fill="#5f3a2f" opacity="0.55"/><rect x="159" y="568" width="7" height="10" fill="#5f3a2f" opacity="0.55"/><rect x="1093" y="491" width="50" height="109" fill="#efe4d0" opacity="0.96"/><polygon points="1090,491 1146,491 1118,470" fill="#b25630"/><rect x="1101" y="507" width="7" height="10" fill="#5f3a2f" opacity="0.55"/><rect x="1121" y="507" width="7" height="10" fill="#5f3a2f" opacity="0.55"/><rect x="1101" y="533" width="7" height="10" fill="#5f3a2f" opacity="0.55"/><rect x="1121" y="533" width="7" height="10" fill="#5f3a2f" opacity="0.55"/><rect x="1101" y="559" width="7" height="10" fill="#5f3a2f" opacity="0.55"/><rect x="1121" y="559" width="7" height="10" fill="#5f3a2f" opacity="0.55"/><rect x="1101" y="585" width="7" height="10" fill="#5f3a2f" opacity="0.55"/><rect x="1121" y="585" width="7" height="10" fill="#5f3a2f" opacity="0.55"/><rect x="637" y="497" width="47" height="103" fill="#efe4d0" opacity="0.96"/><polygon points="634,497 687,497 661,477" fill="#b25630"/><rect x="645" y="513" width="7" height="10" fill="#5f3a2f" opacity="0.55"/><rect x="665" y="513" width="7" height="10" fill="#5f3a2f" opacity="0.55"/><rect x="645" y="539" width="7" height="10" fill="#5f3a2f" opacity="0.55"/><rect x="665" y="539" width="7" height="10" fill="#5f3a2f" opacity="0.55"/><rect x="645" y="565" width="7" height="10" fill="#5f3a2f" opacity="0.55"/><rect x="665" y="565" width="7" height="10" fill="#5f3a2f" opacity="0.55"/><rect x="503" y="522" width="60" height="78" fill="#e9dcc4" opacity="0.96"/><polygon points="500,522 566,522 533,505" fill="#b25630"/><rect x="511" y="538" width="7" height="10" fill="#5f3a2f" opacity="0.55"/><rect x="531" y="538" width="7" height="10" fill="#5f3a2f" opacity="0.55"/><rect x="551" y="538" width="7" height="10" fill="#5f3a2f" opacity="0.55"/><rect x="511" y="564" width="7" height="10" fill="#5f3a2f" opacity="0.55"/><rect x="531" y="564" width="7" height="10" fill="#5f3a2f" opacity="0.55"/><rect x="551" y="564" width="7" height="10" fill="#5f3a2f" opacity="0.55"/><rect x="631" y="487" width="57" height="113" fill="#efe4d0" opacity="0.96"/><polygon points="628,487 691,487 659,469" fill="#b25630"/><rect x="639" y="503" width="7" height="10" fill="#5f3a2f" opacity="0.55"/><rect x="659" y="503" width="7" height="10" fill="#5f3a2f" opacity="0.55"/><rect x="639" y="529" width="7" height="10" fill="#5f3a2f" opacity="0.55"/><rect x="659" y="529" width="7" height="10" fill="#5f3a2f" opacity="0.55"/><rect x="639" y="555" width="7" height="10" fill="#5f3a2f" opacity="0.55"/><rect x="659" y="555" width="7" height="10" fill="#5f3a2f" opacity="0.55"/><rect x="639" y="581" width="7" height="10" fill="#5f3a2f" opacity="0.55"/><rect x="659" y="581" width="7" height="10" fill="#5f3a2f" opacity="0.55"/><rect x="131" y="486" width="40" height="114" fill="#efe4d0" opacity="0.96"/><polygon points="128,486 174,486 151,465" fill="#b25630"/><rect x="139" y="502" width="7" height="10" fill="#5f3a2f" opacity="0.55"/><rect x="159" y="502" width="7" height="10" fill="#5f3a2f" opacity="0.55"/><rect x="139" y="528" width="7" height="10" fill="#5f3a2f" opacity="0.55"/><rect x="159" y="528" width="7" height="10" fill="#5f3a2f" opacity="0.55"/><rect x="139" y="554" width="7" height="10" fill="#5f3a2f" opacity="0.55"/><rect x="159" y="554" width="7" height="10" fill="#5f3a2f" opacity="0.55"/><rect x="139" y="580" width="7" height="10" fill="#5f3a2f" opacity="0.55"/><rect x="159" y="580" width="7" height="10" fill="#5f3a2f" opacity="0.55"/><rect x="1237" y="559" width="42" height="41" fill="#efe4d0" opacity="0.96"/><polygon points="1234,559 1281,559 1257,546" fill="#b25630"/><rect x="1077" y="493" width="62" height="107" fill="#efe4d0" opacity="0.96"/><polygon points="1074,493 1141,493 1107,481" fill="#b25630"/><rect x="1085" y="509" width="7" height="10" fill="#5f3a2f" opacity="0.55"/><rect x="1105" y="509" width="7" height="10" fill="#5f3a2f" opacity="0.55"/><rect x="1125" y="509" width="7" height="10" fill="#5f3a2f" opacity="0.55"/><rect x="1085" y="535" width="7" height="10" fill="#5f3a2f" opacity="0.55"/><rect x="1105" y="535" width="7" height="10" fill="#5f3a2f" opacity="0.55"/><rect x="1125" y="535" width="7" height="10" fill="#5f3a2f" opacity="0.55"/><rect x="1085" y="561" width="7" height="10" fill="#5f3a2f" opacity="0.55"/><rect x="1105" y="561" width="7" height="10" fill="#5f3a2f" opacity="0.55"/><rect x="1125" y="561" width="7" height="10" fill="#5f3a2f" opacity="0.55"/><rect x="238" y="541" width="40" height="59" fill="#e9dcc4" opacity="0.96"/><polygon points="235,541 281,541 258,524" fill="#b25630"/><rect x="758" y="513" width="57" height="87" fill="#efe4d0" opacity="0.96"/><polygon points="755,513 818,513 787,497" fill="#b25630"/><rect x="766" y="529" width="7" height="10" fill="#5f3a2f" opacity="0.55"/><rect x="786" y="529" width="7" height="10" fill="#5f3a2f" opacity="0.55"/><rect x="766" y="555" width="7" height="10" fill="#5f3a2f" opacity="0.55"/><rect x="786" y="555" width="7" height="10" fill="#5f3a2f" opacity="0.55"/><rect x="766" y="581" width="7" height="10" fill="#5f3a2f" opacity="0.55"/><rect x="786" y="581" width="7" height="10" fill="#5f3a2f" opacity="0.55"/><rect x="128" y="541" width="36" height="59" fill="#efe4d0" opacity="0.96"/><polygon points="125,541 167,541 146,527" fill="#b25630"/><rect x="936" y="531" width="37" height="69" fill="#f7efe0" opacity="0.96"/><polygon points="933,531 976,531 955,514" fill="#b25630"/><rect x="944" y="547" width="7" height="10" fill="#5f3a2f" opacity="0.55"/><rect x="944" y="573" width="7" height="10" fill="#5f3a2f" opacity="0.55"/><rect x="726" y="523" width="54" height="77" fill="#efe4d0" opacity="0.96"/><polygon points="723,523 784,523 753,508" fill="#b25630"/><rect x="734" y="539" width="7" height="10" fill="#5f3a2f" opacity="0.55"/><rect x="754" y="539" width="7" height="10" fill="#5f3a2f" opacity="0.55"/><rect x="734" y="565" width="7" height="10" fill="#5f3a2f" opacity="0.55"/><rect x="754" y="565" width="7" height="10" fill="#5f3a2f" opacity="0.55"/><rect x="704" y="538" width="45" height="62" fill="#efe4d0" opacity="0.96"/><polygon points="701,538 752,538 727,524" fill="#b25630"/><rect x="712" y="554" width="7" height="10" fill="#5f3a2f" opacity="0.55"/><rect x="732" y="554" width="7" height="10" fill="#5f3a2f" opacity="0.55"/><rect x="712" y="580" width="7" height="10" fill="#5f3a2f" opacity="0.55"/><rect x="732" y="580" width="7" height="10" fill="#5f3a2f" opacity="0.55"/><rect x="1049" y="490" width="51" height="110" fill="#f7efe0" opacity="0.96"/><polygon points="1046,490 1103,490 1074,469" fill="#b25630"/><rect x="1057" y="506" width="7" height="10" fill="#5f3a2f" opacity="0.55"/><rect x="1077" y="506" width="7" height="10" fill="#5f3a2f" opacity="0.55"/><rect x="1057" y="532" width="7" height="10" fill="#5f3a2f" opacity="0.55"/><rect x="1077" y="532" width="7" height="10" fill="#5f3a2f" opacity="0.55"/><rect x="1057" y="558" width="7" height="10" fill="#5f3a2f" opacity="0.55"/><rect x="1077" y="558" width="7" height="10" fill="#5f3a2f" opacity="0.55"/><rect x="1057" y="584" width="7" height="10" fill="#5f3a2f" opacity="0.55"/><rect x="1077" y="584" width="7" height="10" fill="#5f3a2f" opacity="0.55"/><rect x="698" y="487" width="55" height="113" fill="#efe4d0" opacity="0.96"/><polygon points="695,487 755,487 725,467" fill="#b25630"/><rect x="706" y="503" width="7" height="10" fill="#5f3a2f" opacity="0.55"/><rect x="726" y="503" width="7" height="10" fill="#5f3a2f" opacity="0.55"/><rect x="706" y="529" width="7" height="10" fill="#5f3a2f" opacity="0.55"/><rect x="726" y="529" width="7" height="10" fill="#5f3a2f" opacity="0.55"/><rect x="706" y="555" width="7" height="10" fill="#5f3a2f" opacity="0.55"/><rect x="726" y="555" width="7" height="10" fill="#5f3a2f" opacity="0.55"/><rect x="706" y="581" width="7" height="10" fill="#5f3a2f" opacity="0.55"/><rect x="726" y="581" width="7" height="10" fill="#5f3a2f" opacity="0.55"/><rect x="1222" y="514" width="58" height="86" fill="#efe4d0" opacity="0.96"/><polygon points="1219,514 1283,514 1251,499" fill="#b25630"/><rect x="1230" y="530" width="7" height="10" fill="#5f3a2f" opacity="0.55"/><rect x="1250" y="530" width="7" height="10" fill="#5f3a2f" opacity="0.55"/><rect x="1270" y="530" width="7" height="10" fill="#5f3a2f" opacity="0.55"/><rect x="1230" y="556" width="7" height="10" fill="#5f3a2f" opacity="0.55"/><rect x="1250" y="556" width="7" height="10" fill="#5f3a2f" opacity="0.55"/><rect x="1270" y="556" width="7" height="10" fill="#5f3a2f" opacity="0.55"/><rect x="1230" y="582" width="7" height="10" fill="#5f3a2f" opacity="0.55"/><rect x="1250" y="582" width="7" height="10" fill="#5f3a2f" opacity="0.55"/><rect x="1270" y="582" width="7" height="10" fill="#5f3a2f" opacity="0.55"/><rect x="465" y="553" width="49" height="47" fill="#f7efe0" opacity="0.96"/><polygon points="462,553 518,553 490,536" fill="#b25630"/><rect x="444" y="524" width="43" height="76" fill="#f7efe0" opacity="0.96"/><polygon points="441,524 490,524 466,510" fill="#b25630"/><rect x="452" y="540" width="7" height="10" fill="#5f3a2f" opacity="0.55"/><rect x="472" y="540" width="7" height="10" fill="#5f3a2f" opacity="0.55"/><rect x="452" y="566" width="7" height="10" fill="#5f3a2f" opacity="0.55"/><rect x="472" y="566" width="7" height="10" fill="#5f3a2f" opacity="0.55"/><rect x="995" y="510" width="37" height="90" fill="#e9dcc4" opacity="0.96"/><polygon points="992,510 1036,510 1014,488" fill="#b25630"/><rect x="1003" y="526" width="7" height="10" fill="#5f3a2f" opacity="0.55"/><rect x="1003" y="552" width="7" height="10" fill="#5f3a2f" opacity="0.55"/><rect x="1003" y="578" width="7" height="10" fill="#5f3a2f" opacity="0.55"/><rect x="1060" y="517" width="48" height="83" fill="#e9dcc4" opacity="0.96"/><polygon points="1057,517 1111,517 1084,503" fill="#b25630"/><rect x="1068" y="533" width="7" height="10" fill="#5f3a2f" opacity="0.55"/><rect x="1088" y="533" width="7" height="10" fill="#5f3a2f" opacity="0.55"/><rect x="1068" y="559" width="7" height="10" fill="#5f3a2f" opacity="0.55"/><rect x="1088" y="559" width="7" height="10" fill="#5f3a2f" opacity="0.55"/><rect x="1068" y="585" width="7" height="10" fill="#5f3a2f" opacity="0.55"/><rect x="1088" y="585" width="7" height="10" fill="#5f3a2f" opacity="0.55"/><rect x="897" y="555" width="55" height="45" fill="#efe4d0" opacity="0.96"/><polygon points="894,555 955,555 925,538" fill="#b25630"/><rect x="970" y="553" width="47" height="47" fill="#f7efe0" opacity="0.96"/><polygon points="967,553 1020,553 993,540" fill="#b25630"/><rect x="900" y="552" width="59" height="48" fill="#f7efe0" opacity="0.96"/><polygon points="897,552 962,552 929,538" fill="#b25630"/><rect x="1054" y="550" width="60" height="50" fill="#efe4d0" opacity="0.96"/><polygon points="1051,550 1118,550 1084,529" fill="#b25630"/><rect x="643" y="498" width="61" height="102" fill="#f7efe0" opacity="0.96"/><polygon points="640,498 707,498 674,477" fill="#b25630"/><rect x="651" y="514" width="7" height="10" fill="#5f3a2f" opacity="0.55"/><rect x="671" y="514" width="7" height="10" fill="#5f3a2f" opacity="0.55"/><rect x="691" y="514" width="7" height="10" fill="#5f3a2f" opacity="0.55"/><rect x="651" y="540" width="7" height="10" fill="#5f3a2f" opacity="0.55"/><rect x="671" y="540" width="7" height="10" fill="#5f3a2f" opacity="0.55"/><rect x="691" y="540" width="7" height="10" fill="#5f3a2f" opacity="0.55"/><rect x="651" y="566" width="7" height="10" fill="#5f3a2f" opacity="0.55"/><rect x="671" y="566" width="7" height="10" fill="#5f3a2f" opacity="0.55"/><rect x="691" y="566" width="7" height="10" fill="#5f3a2f" opacity="0.55"/><rect x="615" y="521" width="40" height="79" fill="#efe4d0" opacity="0.96"/><polygon points="612,521 658,521 635,504" fill="#b25630"/><rect x="623" y="537" width="7" height="10" fill="#5f3a2f" opacity="0.55"/><rect x="643" y="537" width="7" height="10" fill="#5f3a2f" opacity="0.55"/><rect x="623" y="563" width="7" height="10" fill="#5f3a2f" opacity="0.55"/><rect x="643" y="563" width="7" height="10" fill="#5f3a2f" opacity="0.55"/><rect x="661" y="503" width="49" height="97" fill="#efe4d0" opacity="0.96"/><polygon points="658,503 713,503 685,486" fill="#b25630"/><rect x="669" y="519" width="7" height="10" fill="#5f3a2f" opacity="0.55"/><rect x="689" y="519" width="7" height="10" fill="#5f3a2f" opacity="0.55"/><rect x="669" y="545" width="7" height="10" fill="#5f3a2f" opacity="0.55"/><rect x="689" y="545" width="7" height="10" fill="#5f3a2f" opacity="0.55"/><rect x="669" y="571" width="7" height="10" fill="#5f3a2f" opacity="0.55"/><rect x="689" y="571" width="7" height="10" fill="#5f3a2f" opacity="0.55"/><rect x="832" y="485" width="40" height="115" fill="#f7efe0" opacity="0.96"/><polygon points="829,485 875,485 852,465" fill="#b25630"/><rect x="840" y="501" width="7" height="10" fill="#5f3a2f" opacity="0.55"/><rect x="860" y="501" width="7" height="10" fill="#5f3a2f" opacity="0.55"/><rect x="840" y="527" width="7" height="10" fill="#5f3a2f" opacity="0.55"/><rect x="860" y="527" width="7" height="10" fill="#5f3a2f" opacity="0.55"/><rect x="840" y="553" width="7" height="10" fill="#5f3a2f" opacity="0.55"/><rect x="860" y="553" width="7" height="10" fill="#5f3a2f" opacity="0.55"/><rect x="840" y="579" width="7" height="10" fill="#5f3a2f" opacity="0.55"/><rect x="860" y="579" width="7" height="10" fill="#5f3a2f" opacity="0.55"/><rect x="878" y="503" width="51" height="97" fill="#f7efe0" opacity="0.96"/><polygon points="875,503 932,503 903,486" fill="#b25630"/><rect x="886" y="519" width="7" height="10" fill="#5f3a2f" opacity="0.55"/><rect x="906" y="519" width="7" height="10" fill="#5f3a2f" opacity="0.55"/><rect x="886" y="545" width="7" height="10" fill="#5f3a2f" opacity="0.55"/><rect x="906" y="545" width="7" height="10" fill="#5f3a2f" opacity="0.55"/><rect x="886" y="571" width="7" height="10" fill="#5f3a2f" opacity="0.55"/><rect x="906" y="571" width="7" height="10" fill="#5f3a2f" opacity="0.55"/><rect x="315" y="544" width="49" height="56" fill="#efe4d0" opacity="0.96"/><polygon points="312,544 367,544 340,528" fill="#b25630"/><rect x="524" y="546" width="60" height="54" fill="#efe4d0" opacity="0.96"/><polygon points="521,546 587,546 554,529" fill="#b25630"/><rect x="862" y="502" width="44" height="98" fill="#efe4d0" opacity="0.96"/><polygon points="859,502 909,502 884,482" fill="#b25630"/><rect x="870" y="518" width="7" height="10" fill="#5f3a2f" opacity="0.55"/><rect x="890" y="518" width="7" height="10" fill="#5f3a2f" opacity="0.55"/><rect x="870" y="544" width="7" height="10" fill="#5f3a2f" opacity="0.55"/><rect x="890" y="544" width="7" height="10" fill="#5f3a2f" opacity="0.55"/><rect x="870" y="570" width="7" height="10" fill="#5f3a2f" opacity="0.55"/><rect x="890" y="570" width="7" height="10" fill="#5f3a2f" opacity="0.55"/><rect x="745" y="485" width="61" height="115" fill="#e9dcc4" opacity="0.96"/><polygon points="742,485 809,485 776,468" fill="#b25630"/><rect x="753" y="501" width="7" height="10" fill="#5f3a2f" opacity="0.55"/><rect x="773" y="501" width="7" height="10" fill="#5f3a2f" opacity="0.55"/><rect x="793" y="501" width="7" height="10" fill="#5f3a2f" opacity="0.55"/><rect x="753" y="527" width="7" height="10" fill="#5f3a2f" opacity="0.55"/><rect x="773" y="527" width="7" height="10" fill="#5f3a2f" opacity="0.55"/><rect x="793" y="527" width="7" height="10" fill="#5f3a2f" opacity="0.55"/><rect x="753" y="553" width="7" height="10" fill="#5f3a2f" opacity="0.55"/><rect x="773" y="553" width="7" height="10" fill="#5f3a2f" opacity="0.55"/><rect x="793" y="553" width="7" height="10" fill="#5f3a2f" opacity="0.55"/><rect x="753" y="579" width="7" height="10" fill="#5f3a2f" opacity="0.55"/><rect x="773" y="579" width="7" height="10" fill="#5f3a2f" opacity="0.55"/><rect x="793" y="579" width="7" height="10" fill="#5f3a2f" opacity="0.55"/><rect x="960" y="536" width="45" height="64" fill="#e9dcc4" opacity="0.96"/><polygon points="957,536 1008,536 983,524" fill="#b25630"/><rect x="968" y="552" width="7" height="10" fill="#5f3a2f" opacity="0.55"/><rect x="988" y="552" width="7" height="10" fill="#5f3a2f" opacity="0.55"/><rect x="968" y="578" width="7" height="10" fill="#5f3a2f" opacity="0.55"/><rect x="988" y="578" width="7" height="10" fill="#5f3a2f" opacity="0.55"/><rect x="256" y="543" width="48" height="57" fill="#efe4d0" opacity="0.96"/><polygon points="253,543 306,543 279,523" fill="#b25630"/><rect x="1167" y="520" width="42" height="80" fill="#e9dcc4" opacity="0.96"/><polygon points="1164,520 1212,520 1188,506" fill="#b25630"/><rect x="1175" y="536" width="7" height="10" fill="#5f3a2f" opacity="0.55"/><rect x="1195" y="536" width="7" height="10" fill="#5f3a2f" opacity="0.55"/><rect x="1175" y="562" width="7" height="10" fill="#5f3a2f" opacity="0.55"/><rect x="1195" y="562" width="7" height="10" fill="#5f3a2f" opacity="0.55"/><rect x="648" y="484" width="60" height="116" fill="#e9dcc4" opacity="0.96"/><polygon points="645,484 711,484 678,464" fill="#b25630"/><rect x="656" y="500" width="7" height="10" fill="#5f3a2f" opacity="0.55"/><rect x="676" y="500" width="7" height="10" fill="#5f3a2f" opacity="0.55"/><rect x="696" y="500" width="7" height="10" fill="#5f3a2f" opacity="0.55"/><rect x="656" y="526" width="7" height="10" fill="#5f3a2f" opacity="0.55"/><rect x="676" y="526" width="7" height="10" fill="#5f3a2f" opacity="0.55"/><rect x="696" y="526" width="7" height="10" fill="#5f3a2f" opacity="0.55"/><rect x="656" y="552" width="7" height="10" fill="#5f3a2f" opacity="0.55"/><rect x="676" y="552" width="7" height="10" fill="#5f3a2f" opacity="0.55"/><rect x="696" y="552" width="7" height="10" fill="#5f3a2f" opacity="0.55"/><rect x="656" y="578" width="7" height="10" fill="#5f3a2f" opacity="0.55"/><rect x="676" y="578" width="7" height="10" fill="#5f3a2f" opacity="0.55"/><rect x="696" y="578" width="7" height="10" fill="#5f3a2f" opacity="0.55"/><rect x="280" y="493" width="54" height="107" fill="#e9dcc4" opacity="0.96"/><polygon points="277,493 337,493 307,480" fill="#b25630"/><rect x="288" y="509" width="7" height="10" fill="#5f3a2f" opacity="0.55"/><rect x="308" y="509" width="7" height="10" fill="#5f3a2f" opacity="0.55"/><rect x="288" y="535" width="7" height="10" fill="#5f3a2f" opacity="0.55"/><rect x="308" y="535" width="7" height="10" fill="#5f3a2f" opacity="0.55"/><rect x="288" y="561" width="7" height="10" fill="#5f3a2f" opacity="0.55"/><rect x="308" y="561" width="7" height="10" fill="#5f3a2f" opacity="0.55"/><rect x="370" y="501" width="62" height="99" fill="#efe4d0" opacity="0.96"/><polygon points="367,501 435,501 401,486" fill="#b25630"/><rect x="378" y="517" width="7" height="10" fill="#5f3a2f" opacity="0.55"/><rect x="398" y="517" width="7" height="10" fill="#5f3a2f" opacity="0.55"/><rect x="418" y="517" width="7" height="10" fill="#5f3a2f" opacity="0.55"/><rect x="378" y="543" width="7" height="10" fill="#5f3a2f" opacity="0.55"/><rect x="398" y="543" width="7" height="10" fill="#5f3a2f" opacity="0.55"/><rect x="418" y="543" width="7" height="10" fill="#5f3a2f" opacity="0.55"/><rect x="378" y="569" width="7" height="10" fill="#5f3a2f" opacity="0.55"/><rect x="398" y="569" width="7" height="10" fill="#5f3a2f" opacity="0.55"/><rect x="418" y="569" width="7" height="10" fill="#5f3a2f" opacity="0.55"/><rect x="1252" y="500" width="60" height="100" fill="#efe4d0" opacity="0.96"/><polygon points="1249,500 1315,500 1282,483" fill="#b25630"/><rect x="1260" y="516" width="7" height="10" fill="#5f3a2f" opacity="0.55"/><rect x="1280" y="516" width="7" height="10" fill="#5f3a2f" opacity="0.55"/><rect x="1300" y="516" width="7" height="10" fill="#5f3a2f" opacity="0.55"/><rect x="1260" y="542" width="7" height="10" fill="#5f3a2f" opacity="0.55"/><rect x="1280" y="542" width="7" height="10" fill="#5f3a2f" opacity="0.55"/><rect x="1300" y="542" width="7" height="10" fill="#5f3a2f" opacity="0.55"/><rect x="1260" y="568" width="7" height="10" fill="#5f3a2f" opacity="0.55"/><rect x="1280" y="568" width="7" height="10" fill="#5f3a2f" opacity="0.55"/><rect x="1300" y="568" width="7" height="10" fill="#5f3a2f" opacity="0.55"/><rect x="736" y="400" width="42" height="200" fill="#efe4d0"/><path d="M736 400 Q757 357 778 400 Z" fill="#c96f43"/><rect x="755" y="343" width="4" height="16" fill="#b25630"/><rect x="0" y="600" width="1600" height="400" fill="url(#sea)"/><path d="M371 702 l55 0 l-10 16 l-35 0 z" fill="#efe4d0"/><rect x="396" y="662" width="3" height="40" fill="#5f3a2f"/><polygon points="398,662 398,696 420,694" fill="#c96f43" opacity="0.9"/><path d="M1154 646 l78 0 l-10 16 l-58 0 z" fill="#efe4d0"/><rect x="1191" y="606" width="3" height="40" fill="#5f3a2f"/><polygon points="1193,606 1193,640 1215,638" fill="#c96f43" opacity="0.9"/><path d="M600 682 l53 0 l-10 16 l-33 0 z" fill="#efe4d0"/><rect x="624" y="642" width="3" height="40" fill="#5f3a2f"/><polygon points="626,642 626,676 648,674" fill="#c96f43" opacity="0.9"/><path d="M858 716 l69 0 l-10 16 l-49 0 z" fill="#efe4d0"/><rect x="891" y="676" width="3" height="40" fill="#5f3a2f"/><polygon points="893,676 893,710 915,708" fill="#c96f43" opacity="0.9"/>
</svg>