<svg xmlns="http://www.w3.org/2000/svg" viewBox="0 0 1600 1000" preserveAspectRatio="xMidYMid slice">
  <defs>
    <linearGradient id="sky" x1="0" y1="0" x2="0" y2="1">
      <stop offset="0" stop-color="#dff0e8"/>
      <stop offset="1" stop-color="#8fd0d0"/>
    </linearGradient>
    <linearGradient id="sea" x1="0" y1="0" x2="0" y2="1">
      <stop offset="0" stop-color="#25b0c0"/>
      <stop offset="1" stop-color="#5f5038"/>
    </linearGradient>
  </defs>
  <rect width="1600" height="1000" fill="url(#sky)"/><circle cx="1205" cy="271" r="81" fill="#fff4cf" opacity="0.95"/><polygon points="0,1000 0,500 0,175 267,396 533,162 800,395 1067,185 1333,406 1600,168 1600,500 1600,1000" fill="#b09a6a"/><polygon points="0,1000 0,620 0,417 229,527 457,393 686,533 914,396 1143,587 1371,365 1600,595 1600,620 1600,1000" fill="#8a7450"/><polygon points="0,1000 0,762 200,774 400,773 600,787 800,779 1000,784 1200,792 1400,785 1600,767 1600,1000" fill="#5f5038"/>
</svg>