<svg xmlns="http://www.w3.org/2000/svg" viewBox="0 0 1600 1000" preserveAspectRatio="xMidYMid slice">
  <defs>
    <linearGradient id="sky" x1="0" y1="0" x2="0" y2="1">
      <stop offset="0" stop-color="#dff0e8"/>
      <stop offset="1" stop-color="#8fd0d0"/>
    </linearGradient>
    <linearGradient id="sea" x1="0" y1="0" x2="0" y2="1">
      <stop offset="0" stop-color="#25b0c0"/>
      <stop offset="1" stop-color="#5f5038"/>
    </linearGradient>
  </defs>
  <rect width="1600" height="1000" fill="url(#sky)"/><circle cx="1131" cy="218" r="101" fill="#fff4cf" opacity="0.95"/><rect x="1060" y="610" width="141" height="6" rx="3" fill="#fff4cf" opacity="0.50"/><rect x="1066" y="632" width="129" height="6" rx="3" fill="#fff4cf" opacity="0.44"/><rect x="1072" y="654" width="117" height="6" rx="3" fill="#fff4cf" opacity="0.38"/><rect x="1079" y="676" width="105" height="6" rx="3" fill="#fff4cf" opacity="0.32"/><rect x="1085" y="698" width="93" height="6" rx="3" fill="#fff4cf" opacity="0.26"/><rect x="1091" y="720" width="81" height="6" rx="3" fill="#fff4cf" opacity="0.20"/><polygon points="0,1000 0,475 267,495 533,499 800,478 1067,463 1333,498 1600,521 1600,1000" fill="#b09a6a" opacity="0.8"/><rect x="719" y="523" width="36" height="77" fill="#efe6cf" opacity="0.96"/><polygon points="716,523 757,523 737,504" fill="#b45a34"/><rect x="727" y="539" width="7" height="10" fill="#5f5038" opacity="0.55"/><rect x="727" y="565" width="7" height="10" fill="#5f5038" opacity="0.55"/><rect x="263" y="486" width="63" height="114" fill="#efe6cf" opacity="0.96"/><polygon points="260,486 329,486 294,474" fill="#b45a34"/><rect x="271" y="502" width="7" height="10" fill="#5f5038" opacity="0.55"/><rect x="291" y="502" width="7" height="10" fill="#5f5038" opacity="0.55"/><rect x="311" y="502" width="7" height="10" fill="#5f5038" opacity="0.55"/><rect x="271" y="528" width="7" height="10" fill="#5f5038" opacity="0.55"/><rect x="291" y="528" width="7" height="10" fill="#5f5038" opacity="0.55"/><rect x="311" y="528" width="7" height="10" fill="#5f5038" opacity="0.55"/><rect x="271" y="554" width="7" height="10" fill="#5f5038" opacity="0.55"/><rect x="291" y="554" width="7" height="10" fill="#5f5038" opacity="0.55"/><rect x="311" y="554" width="7" height="10" fill="#5f5038" opacity="0.55"/><rect x="271" y="580" width="7" height="10" fill="#5f5038" opacity="0.55"/><rect x="291" y="580" width="7" height="10" fill="#5f5038" opacity="0.55"/><rect x="311" y="580" width="7" height="10" fill="#5f5038" opacity="0.55"/><rect x="188" y="499" width="39" height="101" fill="#e9dcc4" opacity="0.96"/><polygon points="185,499 230,499 207,486" fill="#b45a34"/><rect x="196" y="515" width="7" height="10" fill="#5f5038" opacity="0.55"/><rect x="216" y="515" width="7" height="10" fill="#5f5038" opacity="0.55"/><rect x="196" y="541" width="7" height="10" fill="#5f5038" opacity="0.55"/><rect x="216" y="541" width="7" height="10" fill="#5f5038" opacity="0.55"/><rect x="196" y="567" width="7" height="10" fill="#5f5038" opacity="0.55"/><rect x="216" y="567" width="7" height="10" fill="#5f5038" opacity="0.55"/><rect x="746" y="531" width="62" height="69" fill="#efe6cf" opacity="0.96"/><polygon points="743,531 811,531 777,515" fill="#b45a34"/><rect x="754" y="547" width="7" height="10" fill="#5f5038" opacity="0.55"/><rect x="774" y="547" width="7" height="10" fill="#5f5038" opacity="0.55"/><rect x="794" y="547" width="7" height="10" fill="#5f5038" opacity="0.55"/><rect x="754" y="573" width="7" height="10" fill="#5f5038" opacity="0.55"/><rect x="774" y="573" width="7" height="10" fill="#5f5038" opacity="0.55"/><rect x="794" y="573" width="7" height="10" fill="#5f5038" opacity="0.55"/><rect x="1421" y="519" width="49" height="81" fill="#efe6cf" opacity="0.96"/><polygon points="1418,519 1473,519 1446,506" fill="#b45a34"/><rect x="1429" y="535" width="7" height="10" fill="#5f5038" opacity="0.55"/><rect x="1449" y="535" width="7" height="10" fill="#5f5038" opacity="0.55"/><rect x="1429" y="561" width="7" height="10" fill="#5f5038" opacity="0.55"/><rect x="1449" y="561" width="7" height="10" fill="#5f5038" opacity="0.55"/><rect x="1341" y="548" width="42" height="52" fill="#e9dcc4" opacity="0.96"/><polygon points="1338,548 1386,548 1362,527" fill="#b45a34"/><rect x="354" y="558" width="48" height="42" fill="#efe6cf" opacity="0.96"/><polygon points="351,558 405,558 378,541" fill="#b45a34"/><rect x="1013" y="548" width="51" height="52" fill="#efe6cf" opacity="0.96"/><polygon points="1010,548 1068,548 1039,532" fill="#b45a34"/><rect x="493" y="485" width="37" height="115" fill="#e9dcc4" opacity="0.96"/><polygon points="490,485 533,485 512,469" fill="#b45a34"/><rect x="501" y="501" width="7" height="10" fill="#5f5038" opacity="0.55"/><rect x="501" y="527" width="7" height="10" fill="#5f5038" opacity="0.55"/><rect x="501" y="553" width="7" height="10" fill="#5f5038" opacity="0.55"/><rect x="501" y="579" width="7" height="10" fill="#5f5038" opacity="0.55"/><rect x="406" y="484" width="46" height="116" fill="#efe6cf" opacity="0.96"/><polygon points="403,484 455,484 429,465" fill="#b45a34"/><rect x="414" y="500" width="7" height="10" fill="#5f5038" opacity="0.55"/><rect x="434" y="500" width="7" height="10" fill="#5f5038" opacity="0.55"/><rect x="414" y="526" width="7" height="10" fill="#5f5038" opacity="0.55"/><rect x="434" y="526" width="7" height="10" fill="#5f5038" opacity="0.55"/><rect x="414" y="552" width="7" height="10" fill="#5f5038" opacity="0.55"/><rect x="434" y="552" width="7" height="10" fill="#5f5038" opacity="0.55"/><rect x="414" y="578" width="7" height="10" fill="#5f5038" opacity="0.55"/><rect x="434" y="578" width="7" height="10" fill="#5f5038" opacity="0.55"/><rect x="1422" y="514" width="46" height="86" fill="#efe6cf" opacity="0.96"/><polygon points="1419,514 1471,514 1445,495" fill="#b45a34"/><rect x="1430" y="530" width="7" height="10" fill="#5f5038" opacity="0.55"/><rect x="1450" y="530" width="7" height="10" fill="#5f5038" opacity="0.55"/><rect x="1430" y="556" width="7" height="10" fill="#5f5038" opacity="0.55"/><rect x="1450" y="556" width="7" height="10" fill="#5f5038" opacity="0.55"/><rect x="1430" y="582" width="7" height="10" fill="#5f5038" opacity="0.55"/><rect x="1450" y="582" width="7" height="10" fill="#5f5038" opacity="0.55"/><rect x="569" y="559" width="37" height="41" fill="#efe6cf" opacity="0.96"/><polygon points="566,559 609,559 588,546" fill="#b45a34"/><rect x="1367" y="502" width="51" height="98" fill="#efe6cf" opacity="0.96"/><polygon points="1364,502 1420,502 1392,488" fill="#b45a34"/><rect x="1375" y="518" width="7" height="10" fill="#5f5038" opacity="0.55"/><rect x="1395" y="518" width="7" height="10" fill="#5f5038" opacity="0.55"/><rect x="1375" y="544" width="7" height="10" fill="#5f5038" opacity="0.55"/><rect x="1395" y="544" width="7" height="10" fill="#5f5038" opacity="0.55"/><rect x="1375" y="570" width="7" height="10" fill="#5f5038" opacity="0.55"/><rect x="1395" y="570" width="7" height="10" fill="#5f5038" opacity="0.55"/><rect x="517" y="521" width="62" height="79" fill="#efe6cf" opacity="0.96"/><polygon points="514,521 582,521 548,500" fill="#b45a34"/><rect x="525" y="537" width="7" height="10" fill="#5f5038" opacity="0.55"/><rect x="545" y="537" width="7" height="10" fill="#5f5038" opacity="0.55"/><rect x="565" y="537" width="7" height="10" fill="#5f5038" opacity="0.55"/><rect x="525" y="563" width="7" height="10" fill="#5f5038" opacity="0.55"/><rect x="545" y="563" width="7" height="10" fill="#5f5038" opacity="0.55"/><rect x="565" y="563" width="7" height="10" fill="#5f5038" opacity="0.55"/><rect x="1245" y="507" width="55" height="93" fill="#efe6cf" opacity="0.96"/><polygon points="1242,507 1303,507 1272,487" fill="#b45a34"/><rect x="1253" y="523" width="7" height="10" fill="#5f5038" opacity="0.55"/><rect x="1273" y="523" width="7" height="10" fill="#5f5038" opacity="0.55"/><rect x="1253" y="549" width="7" height="10" fill="#5f5038" opacity="0.55"/><rect x="1273" y="549" width="7" height="10" fill="#5f5038" opacity="0.55"/><rect x="1253" y="575" width="7" height="10" fill="#5f5038" opacity="0.55"/><rect x="1273" y="575" width="7" height="10" fill="#5f5038" opacity="0.55"/><rect x="504" y="556" width="37" height="44" fill="#e9dcc4" opacity="0.96"/><polygon points="501,556 544,556 523,538" fill="#b45a34"/><rect x="636" y="481" width="34" height="119" fill="#efe6cf" opacity="0.96"/><polygon points="633,481 673,481 653,463" fill="#b45a34"/><rect x="644" y="497" width="7" height="10" fill="#5f5038" opacity="0.55"/><rect x="644" y="523" width="7" height="10" fill="#5f5038" opacity="0.55"/><rect x="644" y="549" width="7" height="10" fill="#5f5038" opacity="0.55"/><rect x="644" y="575" width="7" height="10" fill="#5f5038" opacity="0.55"/><rect x="1190" y="535" width="60" height="65" fill="#efe6cf" opacity="0.96"/><polygon points="1187,535 1253,535 1220,518" fill="#b45a34"/><rect x="1198" y="551" width="7" height="10" fill="#5f5038" opacity="0.55"/><rect x="1218" y="551" width="7" height="10" fill="#5f5038" opacity="0.55"/><rect x="1238" y="551" width="7" height="10" fill="#5f5038" opacity="0.55"/><rect x="1198" y="577" width="7" height="10" fill="#5f5038" opacity="0.55"/><rect x="1218" y="577" width="7" height="10" fill="#5f5038" opacity="0.55"/><rect x="1238" y="577" width="7" height="10" fill="#5f5038" opacity="0.55"/><rect x="913" y="556" width="43" height="44" fill="#f7efe0" opacity="0.96"/><polygon points="910,556 960,556 935,543" fill="#b45a34"/><rect x="950" y="546" width="53" height="54" fill="#e9dcc4" opacity="0.96"/><polygon points="947,546 1007,546 977,527" fill="#b45a34"/><rect x="1334" y="490" width="36" height="110" fill="#efe6cf" opacity="0.96"/><polygon points="1331,490 1373,490 1352,475" fill="#b45a34"/><rect x="1342" y="506" width="7" height="10" fill="#5f5038" opacity="0.55"/><rect x="1342" y="532" width="7" height="10" fill="#5f5038" opacity="0.55"/><rect x="1342" y="558" width="7" height="10" fill="#5f5038" opacity="0.55"/><rect x="1342" y="584" width="7" height="10" fill="#5f5038" opacity="0.55"/><rect x="286" y="521" width="61" height="79" fill="#efe6cf" opacity="0.96"/><polygon points="283,521 351,521 317,502" fill="#b45a34"/><rect x="294" y="537" width="7" height="10" fill="#5f5038" opacity="0.55"/><rect x="314" y="537" width="7" height="10" fill="#5f5038" opacity="0.55"/><rect x="334" y="537" width="7" height="10" fill="#5f5038" opacity="0.55"/><rect x="294" y="563" width="7" height="10" fill="#5f5038" opacity="0.55"/><rect x="314" y="563" width="7" height="10" fill="#5f5038" opacity="0.55"/><rect x="334" y="563" width="7" height="10" fill="#5f5038" opacity="0.55"/><rect x="298" y="490" width="57" height="110" fill="#efe6cf" opacity="0.96"/><polygon points="295,490 358,490 326,471" fill="#b45a34"/><rect x="306" y="506" width="7" height="10" fill="#5f5038" opacity="0.55"/><rect x="326" y="506" width="7" height="10" fill="#5f5038" opacity="0.55"/><rect x="306" y="532" width="7" height="10" fill="#5f5038" opacity="0.55"/><rect x="326" y="532" width="7" height="10" fill="#5f5038" opacity="0.55"/><rect x="306" y="558" width="7" height="10" fill="#5f5038" opacity="0.55"/><rect x="326" y="558" width="7" height="10" fill="#5f5038" opacity="0.55"/><rect x="306" y="584" width="7" height="10" fill="#5f5038" opacity="0.55"/><rect x="326" y="584" width="7" height="10" fill="#5f5038" opacity="0.55"/><rect x="935" y="549" width="55" height="51" fill="#efe6cf" opacity="0.96"/><polygon points="932,549 993,549 963,535" fill="#b45a34"/><rect x="1056" y="517" width="61" height="83" fill="#f7efe0" opacity="0.96"/><polygon points="1053,517 1120,517 1086,503" fill="#b45a34"/><rect x="1064" y="533" width="7" height="10" fill="#5f5038" opacity="0.55"/><rect x="1084" y="533" width="7" height="10" fill="#5f5038" opacity="0.55"/><rect x="1104" y="533" width="7" height="10" fill="#5f5038" opacity="0.55"/><rect x="1064" y="559" width="7" height="10" fill="#5f5038" opacity="0.55"/><rect x="1084" y="559" width="7" height="10" fill="#5f5038" opacity="0.55"/><rect x="1104" y="559" width="7" height="10" fill="#5f5038" opacity="0.55"/><rect x="1064" y="585" width="7" height="10" fill="#5f5038" opacity="0.55"/><rect x="1084" y="585" width="7" height="10" fill="#5f5038" opacity="0.55"/><rect x="1104" y="585" width="7" height="10" fill="#5f5038" opacity="0.55"/><rect x="156" y="538" width="60" height="62" fill="#efe6cf" opacity="0.96"/><polygon points="153,538 218,538 185,520" fill="#b45a34"/><rect x="164" y="554" width="7" height="10" fill="#5f5038" opacity="0.55"/><rect x="184" y="554" width="7" height="10" fill="#5f5038" opacity="0.55"/><rect x="204" y="554" width="7" height="10" fill="#5f5038" opacity="0.55"/><rect x="164" y="580" width="7" height="10" fill="#5f5038" opacity="0.55"/><rect x="184" y="580" width="7" height="10" fill="#5f5038" opacity="0.55"/><rect x="204" y="580" width="7" height="10" fill="#5f5038" opacity="0.55"/><rect x="1028" y="482" width="41" height="118" fill="#e9dcc4" opacity="0.96"/><polygon points="1025,482 1072,482 1049,467" fill="#b45a34"/><rect x="1036" y="498" width="7" height="10" fill="#5f5038" opacity="0.55"/><rect x="1056" y="498" width="7" height="10" fill="#5f5038" opacity="0.55"/><rect x="1036" y="524" width="7" height="10" fill="#5f5038" opacity="0.55"/><rect x="1056" y="524" width="7" height="10" fill="#5f5038" opacity="0.55"/><rect x="1036" y="550" width="7" height="10" fill="#5f5038" opacity="0.55"/><rect x="1056" y="550" width="7" height="10" fill="#5f5038" opacity="0.55"/><rect x="1036" y="576" width="7" height="10" fill="#5f5038" opacity="0.55"/><rect x="1056" y="576" width="7" height="10" fill="#5f5038" opacity="0.55"/><rect x="207" y="510" width="44" height="90" fill="#f7efe0" opacity="0.96"/><polygon points="204,510 253,510 229,495" fill="#b45a34"/><rect x="215" y="526" width="7" height="10" fill="#5f5038" opacity="0.55"/><rect x="235" y="526" width="7" height="10" fill="#5f5038" opacity="0.55"/><rect x="215" y="552" width="7" height="10" fill="#5f5038" opacity="0.55"/><rect x="235" y="552" width="7" height="10" fill="#5f5038" opacity="0.55"/><rect x="215" y="578" width="7" height="10" fill="#5f5038" opacity="0.55"/><rect x="235" y="578" width="7" height="10" fill="#5f5038" opacity="0.55"/><rect x="1078" y="505" width="38" height="95" fill="#e9dcc4" opacity="0.96"/><polygon points="1075,505 1119,505 1097,490" fill="#b45a34"/><rect x="1086" y="521" width="7" height="10" fill="#5f5038" opacity="0.55"/><rect x="1086" y="547" width="7" height="10" fill="#5f5038" opacity="0.55"/><rect x="1086" y="573" width="7" height="10" fill="#5f5038" opacity="0.55"/><rect x="1211" y="527" width="63" height="73" fill="#e9dcc4" opacity="0.96"/><polygon points="1208,527 1277,527 1243,514" fill="#b45a34"/><rect x="1219" y="543" width="7" height="10" fill="#5f5038" opacity="0.55"/><rect x="1239" y="543" width="7" height="10" fill="#5f5038" opacity="0.55"/><rect x="1259" y="543" width="7" height="10" fill="#5f5038" opacity="0.55"/><rect x="1219" y="569" width="7" height="10" fill="#5f5038" opacity="0.55"/><rect x="1239" y="569" width="7" height="10" fill="#5f5038" opacity="0.55"/><rect x="1259" y="569" width="7" height="10" fill="#5f5038" opacity="0.55"/><rect x="247" y="494" width="54" height="106" fill="#efe6cf" opacity="0.96"/><polygon points="244,494 304,494 274,472" fill="#b45a34"/><rect x="255" y="510" width="7" height="10" fill="#5f5038" opacity="0.55"/><rect x="275" y="510" width="7" height="10" fill="#5f5038" opacity="0.55"/><rect x="255" y="536" width="7" height="10" fill="#5f5038" opacity="0.55"/><rect x="275" y="536" width="7" height="10" fill="#5f5038" opacity="0.55"/><rect x="255" y="562" width="7" height="10" fill="#5f5038" opacity="0.55"/><rect x="275" y="562" width="7" height="10" fill="#5f5038" opacity="0.55"/><rect x="1161" y="526" width="50" height="74" fill="#f7efe0" opacity="0.96"/><polygon points="1158,526 1214,526 1186,511" fill="#b45a34"/><rect x="1169" y="542" width="7" height="10" fill="#5f5038" opacity="0.55"/><rect x="1189" y="542" width="7" height="10" fill="#5f5038" opacity="0.55"/><rect x="1169" y="568" width="7" height="10" fill="#5f5038" opacity="0.55"/><rect x="1189" y="568" width="7" height="10" fill="#5f5038" opacity="0.55"/><rect x="1297" y="523" width="55" height="77" fill="#f7efe0" opacity="0.96"/><polygon points="1294,523 1354,523 1324,507" fill="#b45a34"/><rect x="1305" y="539" width="7" height="10" fill="#5f5038" opacity="0.55"/><rect x="1325" y="539" width="7" height="10" fill="#5f5038" opacity="0.55"/><rect x="1305" y="565" width="7" height="10" fill="#5f5038" opacity="0.55"/><rect x="1325" y="565" width="7" height="10" fill="#5f5038" opacity="0.55"/><rect x="961" y="559" width="54" height="41" fill="#e9dcc4" opacity="0.96"/><polygon points="958,559 1018,559 988,543" fill="#b45a34"/><rect x="875" y="554" width="36" height="46" fill="#efe6cf" opacity="0.96"/><polygon points="872,554 914,554 893,533" fill="#b45a34"/><rect x="973" y="490" width="34" height="110" fill="#f7efe0" opacity="0.96"/><polygon points="970,490 1010,490 990,471" fill="#b45a34"/><rect x="981" y="506" width="7" height="10" fill="#5f5038" opacity="0.55"/><rect x="981" y="532" width="7" height="10" fill="#5f5038" opacity="0.55"/><rect x="981" y="558" width="7" height="10" fill="#5f5038" opacity="0.55"/><rect x="981" y="584" width="7" height="10" fill="#5f5038" opacity="0.55"/><rect x="1137" y="496" width="43" height="104" fill="#efe6cf" opacity="0.96"/><polygon points="1134,496 1183,496 1158,477" fill="#b45a34"/><rect x="1145" y="512" width="7" height="10" fill="#5f5038" opacity="0.55"/><rect x="1165" y="512" width="7" height="10" fill="#5f5038" opacity="0.55"/><rect x="1145" y="538" width="7" height="10" fill="#5f5038" opacity="0.55"/><rect x="1165" y="538" width="7" height="10" fill="#5f5038" opacity="0.55"/><rect x="1145" y="564" width="7" height="10" fill="#5f5038" opacity="0.55"/><rect x="1165" y="564" width="7" height="10" fill="#5f5038" opacity="0.55"/><rect x="312" y="542" width="64" height="58" fill="#f7efe0" opacity="0.96"/><polygon points="309,542 379,542 344,525" fill="#b45a34"/><rect x="443" y="530" width="42" height="70" fill="#e9dcc4" opacity="0.96"/><polygon points="440,530 488,530 464,512" fill="#b45a34"/><rect x="451" y="546" width="7" height="10" fill="#5f5038" opacity="0.55"/><rect x="471" y="546" width="7" height="10" fill="#5f5038" opacity="0.55"/><rect x="451" y="572" width="7" height="10" fill="#5f5038" opacity="0.55"/><rect x="471" y="572" width="7" height="10" fill="#5f5038" opacity="0.55"/><rect x="1228" y="511" width="50" height="89" fill="#efe6cf" opacity="0.96"/><polygon points="1225,511 1282,511 1253,497" fill="#b45a34"/><rect x="1236" y="527" width="7" height="10" fill="#5f5038" opacity="0.55"/><rect x="1256" y="527" width="7" height="10" fill="#5f5038" opacity="0.55"/><rect x="1236" y="553" width="7" height="10" fill="#5f5038" opacity="0.55"/><rect x="1256" y="553" width="7" height="10" fill="#5f5038" opacity="0.55"/><rect x="1236" y="579" width="7" height="10" fill="#5f5038" opacity="0.55"/><rect x="1256" y="579" width="7" height="10" fill="#5f5038" opacity="0.55"/><rect x="843" y="496" width="63" height="104" fill="#efe6cf" opacity="0.96"/><polygon points="840,496 908,496 874,480" fill="#b45a34"/><rect x="851" y="512" width="7" height="10" fill="#5f5038" opacity="0.55"/><rect x="871" y="512" width="7" height="10" fill="#5f5038" opacity="0.55"/><rect x="891" y="512" width="7" height="10" fill="#5f5038" opacity="0.55"/><rect x="851" y="538" width="7" height="10" fill="#5f5038" opacity="0.55"/><rect x="871" y="538" width="7" height="10" fill="#5f5038" opacity="0.55"/><rect x="891" y="538" width="7" height="10" fill="#5f5038" opacity="0.55"/><rect x="851" y="564" width="7" height="10" fill="#5f5038" opacity="0.55"/><rect x="871" y="564" width="7" height="10" fill="#5f5038" opacity="0.55"/><rect x="891" y="564" width="7" height="10" fill="#5f5038" opacity="0.55"/><rect x="579" y="502" width="64" height="98" fill="#efe6cf" opacity="0.96"/><polygon points="576,502 646,502 611,482" fill="#b45a34"/><rect x="587" y="518" width="7" height="10" fill="#5f5038" opacity="0.55"/><rect x="607" y="518" width="7" height="10" fill="#5f5038" opacity="0.55"/><rect x="627" y="518" width="7" height="10" fill="#5f5038" opacity="0.55"/><rect x="587" y="544" width="7" height="10" fill="#5f5038" opacity="0.55"/><rect x="607" y="544" width="7" height="10" fill="#5f5038" opacity="0.55"/><rect x="627" y="544" width="7" height="10" fill="#5f5038" opacity="0.55"/><rect x="587" y="570" width="7" height="10" fill="#5f5038" opacity="0.55"/><rect x="607" y="570" width="7" height="10" fill="#5f5038" opacity="0.55"/><rect x="627" y="570" width="7" height="10" fill="#5f5038" opacity="0.55"/><rect x="130" y="532" width="49" height="68" fill="#efe6cf" opacity="0.96"/><polygon points="127,532 182,532 154,510" fill="#b45a34"/><rect x="138" y="548" width="7" height="10" fill="#5f5038" opacity="0.55"/><rect x="158" y="548" width="7" height="10" fill="#5f5038" opacity="0.55"/><rect x="138" y="574" width="7" height="10" fill="#5f5038" opacity="0.55"/><rect x="158" y="574" width="7" height="10" fill="#5f5038" opacity="0.55"/><rect x="596" y="486" width="49" height="114" fill="#e9dcc4" opacity="0.96"/><polygon points="593,486 648,486 620,473" fill="#b45a34"/><rect x="604" y="502" width="7" height="10" fill="#5f5038" opacity="0.55"/><rect x="624" y="502" width="7" height="10" fill="#5f5038" opacity="0.55"/><rect x="604" y="528" width="7" height="10" fill="#5f5038" opacity="0.55"/><rect x="624" y="528" width="7" height="10" fill="#5f5038" opacity="0.55"/><rect x="604" y="554" width="7" height="10" fill="#5f5038" opacity="0.55"/><rect x="624" y="554" width="7" height="10" fill="#5f5038" opacity="0.55"/><rect x="604" y="580" width="7" height="10" fill="#5f5038" opacity="0.55"/><rect x="624" y="580" width="7" height="10" fill="#5f5038" opacity="0.55"/><rect x="194" y="509" width="46" height="91" fill="#efe6cf" opacity="0.96"/><polygon points="191,509 243,509 217,493" fill="#b45a34"/><rect x="202" y="525" width="7" height="10" fill="#5f5038" opacity="0.55"/><rect x="222" y="525" width="7" height="10" fill="#5f5038" opacity="0.55"/><rect x="202" y="551" width="7" height="10" fill="#5f5038" opacity="0.55"/><rect x="222" y="551" width="7" height="10" fill="#5f5038" opacity="0.55"/><rect x="202" y="577" width="7" height="10" fill="#5f5038" opacity="0.55"/><rect x="222" y="577" width="7" height="10" fill="#5f5038" opacity="0.55"/><rect x="678" y="542" width="58" height="58" fill="#efe6cf" opacity="0.96"/><polygon points="675,542 739,542 707,526" fill="#b45a34"/><rect x="804" y="547" width="37" height="53" fill="#efe6cf" opacity="0.96"/><polygon points="801,547 844,547 822,534" fill="#b45a34"/><rect x="609" y="533" width="62" height="67" fill="#efe6cf" opacity="0.96"/><polygon points="606,533 674,533 640,515" fill="#b45a34"/><rect x="617" y="549" width="7" height="10" fill="#5f5038" opacity="0.55"/><rect x="637" y="549" width="7" height="10" fill="#5f5038" opacity="0.55"/><rect x="657" y="549" width="7" height="10" fill="#5f5038" opacity="0.55"/><rect x="617" y="575" width="7" height="10" fill="#5f5038" opacity="0.55"/><rect x="637" y="575" width="7" height="10" fill="#5f5038" opacity="0.55"/><rect x="657" y="575" width="7" height="10" fill="#5f5038" opacity="0.55"/><rect x="296" y="549" width="44" height="51" fill="#e9dcc4" opacity="0.96"/><polygon points="293,549 343,549 318,533" fill="#b45a34"/><rect x="515" y="482" width="59" height="118" fill="#efe6cf" opacity="0.96"/><polygon points="512,482 577,482 545,463" fill="#b45a34"/><rect x="523" y="498" width="7" height="10" fill="#5f5038" opacity="0.55"/><rect x="543" y="498" width="7" height="10" fill="#5f5038" opacity="0.55"/><rect x="563" y="498" width="7" height="10" fill="#5f5038" opacity="0.55"/><rect x="523" y="524" width="7" height="10" fill="#5f5038" opacity="0.55"/><rect x="543" y="524" width="7" height="10" fill="#5f5038" opacity="0.55"/><rect x="563" y="524" width="7" height="10" fill="#5f5038" opacity="0.55"/><rect x="523" y="550" width="7" height="10" fill="#5f5038" opacity="0.55"/><rect x="543" y="550" width="7" height="10" fill="#5f5038" opacity="0.55"/><rect x="563" y="550" width="7" height="10" fill="#5f5038" opacity="0.55"/><rect x="523" y="576" width="7" height="10" fill="#5f5038" opacity="0.55"/><rect x="543" y="576" width="7" height="10" fill="#5f5038" opacity="0.55"/><rect x="563" y="576" width="7" height="10" fill="#5f5038" opacity="0.55"/><rect x="785" y="532" width="49" height="68" fill="#f7efe0" opacity="0.96"/><polygon points="782,532 837,532 809,517" fill="#b45a34"/><rect x="793" y="548" width="7" height="10" fill="#5f5038" opacity="0.55"/><rect x="813" y="548" width="7" height="10" fill="#5f5038" opacity="0.55"/><rect x="793" y="574" width="7" height="10" fill="#5f5038" opacity="0.55"/><rect x="813" y="574" width="7" height="10" fill="#5f5038" opacity="0.55"/><rect x="950" y="541" width="64" height="59" fill="#f7efe0" opacity="0.96"/><polygon points="947,541 1017,541 982,522" fill="#b45a34"/><rect x="805" y="486" width="58" height="114" fill="#efe6cf" opacity="0.96"/><polygon points="802,486 865,486 833,467" fill="#b45a34"/><rect x="813" y="502" width="7" height="10" fill="#5f5038" opacity="0.55"/><rect x="833" y="502" width="7" height="10" fill="#5f5038" opacity="0.55"/><rect x="813" y="528" width="7" height="10" fill="#5f5038" opacity="0.55"/><rect x="833" y="528" width="7" height="10" fill="#5f5038" opacity="0.55"/><rect x="813" y="554" width="7" height="10" fill="#5f5038" opacity="0.55"/><rect x="833" y="554" width="7" height="10" fill="#5f5038" opacity="0.55"/><rect x="813" y="580" width="7" height="10" fill="#5f5038" opacity="0.55"/><rect x="833" y="580" width="7" height="10" fill="#5f5038" opacity="0.55"/><rect x="930" y="557" width="38" height="43" fill="#efe6cf" opacity="0.96"/><polygon points="927,557 971,557 949,539" fill="#b45a34"/><rect x="1194" y="535" width="62" height="65" fill="#efe6cf" opacity="0.96"/><polygon points="1191,535 1259,535 1225,518" fill="#b45a34"/><rect x="1202" y="551" width="7" height="10" fill="#5f5038" opacity="0.55"/><rect x="1222" y="551" width="7" height="10" fill="#5f5038" opacity="0.55"/><rect x="1242" y="551" width="7" height="10" fill="#5f5038" opacity="0.55"/><rect x="1202" y="577" width="7" height="10" fill="#5f5038" opacity="0.55"/><rect x="1222" y="577" width="7" height="10" fill="#5f5038" opacity="0.55"/><rect x="1242" y="577" width="7" height="10" fill="#5f5038" opacity="0.55"/><rect x="1141" y="488" width="45" height="112" fill="#f7efe0" opacity="0.96"/><polygon points="1138,488 1189,488 1163,467" fill="#b45a34"/><rect x="1149" y="504" width="7" height="10" fill="#5f5038" opacity="0.55"/><rect x="1169" y="504" width="7" height="10" fill="#5f5038" opacity="0.55"/><rect x="1149" y="530" width="7" height="10" fill="#5f5038" opacity="0.55"/><rect x="1169" y="530" width="7" height="10" fill="#5f5038" opacity="0.55"/><rect x="1149" y="556" width="7" height="10" fill="#5f5038" opacity="0.55"/><rect x="1169" y="556" width="7" height="10" fill="#5f5038" opacity="0.55"/><rect x="1149" y="582" width="7" height="10" fill="#5f5038" opacity="0.55"/><rect x="1169" y="582" width="7" height="10" fill="#5f5038" opacity="0.55"/><rect x="1283" y="483" width="40" height="117" fill="#f7efe0" opacity="0.96"/><polygon points="1280,483 1326,483 1303,471" fill="#b45a34"/><rect x="1291" y="499" width="7" height="10" fill="#5f5038" opacity="0.55"/><rect x="1311" y="499" width="7" height="10" fill="#5f5038" opacity="0.55"/><rect x="1291" y="525" width="7" height="10" fill="#5f5038" opacity="0.55"/><rect x="1311" y="525" width="7" height="10" fill="#5f5038" opacity="0.55"/><rect x="1291" y="551" width="7" height="10" fill="#5f5038" opacity="0.55"/><rect x="1311" y="551" width="7" height="10" fill="#5f5038" opacity="0.55"/><rect x="1291" y="577" width="7" height="10" fill="#5f5038" opacity="0.55"/><rect x="1311" y="577" width="7" height="10" fill="#5f5038" opacity="0.55"/><rect x="1074" y="526" width="63" height="74" fill="#efe6cf" opacity="0.96"/><polygon points="1071,526 1140,526 1106,504" fill="#b45a34"/><rect x="1082" y="542" width="7" height="10" fill="#5f5038" opacity="0.55"/><rect x="1102" y="542" width="7" height="10" fill="#5f5038" opacity="0.55"/><rect x="1122" y="542" width="7" height="10" fill="#5f5038" opacity="0.55"/><rect x="1082" y="568" width="7" height="10" fill="#5f5038" opacity="0.55"/><rect x="1102" y="568" width="7" height="10" fill="#5f5038" opacity="0.55"/><rect x="1122" y="568" width="7" height="10" fill="#5f5038" opacity="0.55"/><rect x="814" y="408" width="41" height="192" fill="#efe6cf"/><polygon points="810,408 859,408 834,374" fill="#b45a34"/><rect x="822" y="432" width="10" height="18" fill="#5f5038" opacity="0.5"/><rect x="0" y="600" width="1600" height="400" fill="url(#sea)"/><path d="M421 651 l65 0 l-10 16 l-45 0 z" fill="#efe6cf"/><rect x="452" y="611" width="3" height="40" fill="#5f5038"/><polygon points="454,611 454,645 476,643" fill="#2aa5b0" opacity="0.9"/><path d="M1035 710 l79 0 l-10 16 l-59 0 z" fill="#efe6cf"/><rect x="1073" y="670" width="3" height="40" fill="#5f5038"/><polygon points="1075,670 1075,704 1097,702" fill="#2aa5b0" opacity="0.9"/><path d="M661 676 l59 0 l-10 16 l-39 0 z" fill="#efe6cf"/><rect x="688" y="636" width="3" height="40" fill="#5f5038"/><polygon points="690,636 690,670 712,668" fill="#2aa5b0" opacity="0.9"/><path d="M835 662 l69 0 l-10 16 l-49 0 z" fill="#efe6cf"/><rect x="867" y="622" width="3" height="40" fill="#5f5038"/><polygon points="869,622 869,656 891,654" fill="#2aa5b0" opacity="0.9"/>
</svg>