<svg xmlns="http://www.w3.org/2000/svg" viewBox="0 0 1600 1000" preserveAspectRatio="xMidYMid slice">
  <defs>
    <linearGradient id="sky" x1="0" y1="0" x2="0" y2="1">
      <stop offset="0" stop-color="#c8e8f0"/>
      <stop offset="1" stop-color="#86c6da"/>
    </linearGradient>
    <linearGradient id="sea" x1="0" y1="0" x2="0" y2="1">
      <stop offset="0" stop-color="#2a9db5"/>
      <stop offset="1" stop-color="#5f7a80"/>
    </linearGradient>
  </defs>
  <rect width="1600" height="1000" fill="url(#sky)"/><circle cx="927" cy="191" r="87" fill="#fbf6e6" opacity="0.95"/><polygon points="0,1000 0,561 200,572 400,589 600,533 800,544 1000,572 1200,543 1400,560 1600,565 1600,1000" fill="#9fb7bf" opacity="0.8"/><polygon points="0,1000 0,810 229,795 457,831 686,815 914,834 1143,813 1371,824 1600,803 1600,1000" fill="#7f9aa0"/><rect x="708" y="713" width="55" height="107" fill="#f7efe0" opacity="0.96"/><polygon points="705,713 766,713 735,699" fill="#b6503a"/><rect x="716" y="729" width="7" height="10" fill="#5f7a80" opacity="0.55"/><rect x="736" y="729" width="7" height="10" fill="#5f7a80" opacity="0.55"/><rect x="716" y="755" width="7" height="10" fill="#5f7a80" opacity="0.55"/><rect x="736" y="755" width="7" height="10" fill="#5f7a80" opacity="0.55"/><rect x="716" y="781" width="7" height="10" fill="#5f7a80" opacity="0.55"/><rect x="736" y="781" width="7" height="10" fill="#5f7a80" opacity="0.55"/><rect x="436" y="701" width="52" height="119" fill="#efe7d6" opacity="0.96"/><polygon points="433,701 491,701 462,687" fill="#b6503a"/><rect x="444" y="717" width="7" height="10" fill="#5f7a80" opacity="0.55"/><rect x="464" y="717" width="7" height="10" fill="#5f7a80" opacity="0.55"/><rect x="444" y="743" width="7" height="10" fill="#5f7a80" opacity="0.55"/><rect x="464" y="743" width="7" height="10" fill="#5f7a80" opacity="0.55"/><rect x="444" y="769" width="7" height="10" fill="#5f7a80" opacity="0.55"/><rect x="464" y="769" width="7" height="10" fill="#5f7a80" opacity="0.55"/><rect x="444" y="795" width="7" height="10" fill="#5f7a80" opacity="0.55"/><rect x="464" y="795" width="7" height="10" fill="#5f7a80" opacity="0.55"/><rect x="595" y="767" width="56" height="53" fill="#efe7d6" opacity="0.96"/><polygon points="592,767 654,767 623,749" fill="#b6503a"/><rect x="854" y="767" width="48" height="53" fill="#efe7d6" opacity="0.96"/><polygon points="851,767 905,767 878,750" fill="#b6503a"/><rect x="751" y="778" width="36" height="42" fill="#e9dcc4" opacity="0.96"/><polygon points="748,778 790,778 769,762" fill="#b6503a"/><rect x="371" y="755" width="44" height="65" fill="#e9dcc4" opacity="0.96"/><polygon points="368,755 419,755 393,739" fill="#b6503a"/><rect x="379" y="771" width="7" height="10" fill="#5f7a80" opacity="0.55"/><rect x="399" y="771" width="7" height="10" fill="#5f7a80" opacity="0.55"/><rect x="379" y="797" width="7" height="10" fill="#5f7a80" opacity="0.55"/><rect x="399" y="797" width="7" height="10" fill="#5f7a80" opacity="0.55"/><rect x="1126" y="716" width="48" height="104" fill="#f7efe0" opacity="0.96"/><polygon points="1123,716 1176,716 1149,696" fill="#b6503a"/><rect x="1134" y="732" width="7" height="10" fill="#5f7a80" opacity="0.55"/><rect x="1154" y="732" width="7" height="10" fill="#5f7a80" opacity="0.55"/><rect x="1134" y="758" width="7" height="10" fill="#5f7a80" opacity="0.55"/><rect x="1154" y="758" width="7" height="10" fill="#5f7a80" opacity="0.55"/><rect x="1134" y="784" width="7" height="10" fill="#5f7a80" opacity="0.55"/><rect x="1154" y="784" width="7" height="10" fill="#5f7a80" opacity="0.55"/><rect x="879" y="705" width="60" height="115" fill="#efe7d6" opacity="0.96"/><polygon points="876,705 942,705 909,683" fill="#b6503a"/><rect x="887" y="721" width="7" height="10" fill="#5f7a80" opacity="0.55"/><rect x="907" y="721" width="7" height="10" fill="#5f7a80" opacity="0.55"/><rect x="927" y="721" width="7" height="10" fill="#5f7a80" opacity="0.55"/><rect x="887" y="747" width="7" height="10" fill="#5f7a80" opacity="0.55"/><rect x="907" y="747" width="7" height="10" fill="#5f7a80" opacity="0.55"/><rect x="927" y="747" width="7" height="10" fill="#5f7a80" opacity="0.55"/><rect x="887" y="773" width="7" height="10" fill="#5f7a80" opacity="0.55"/><rect x="907" y="773" width="7" height="10" fill="#5f7a80" opacity="0.55"/><rect x="927" y="773" width="7" height="10" fill="#5f7a80" opacity="0.55"/><rect x="887" y="799" width="7" height="10" fill="#5f7a80" opacity="0.55"/><rect x="907" y="799" width="7" height="10" fill="#5f7a80" opacity="0.55"/><rect x="927" y="799" width="7" height="10" fill="#5f7a80" opacity="0.55"/><rect x="1165" y="725" width="55" height="95" fill="#f7efe0" opacity="0.96"/><polygon points="1162,725 1223,725 1192,706" fill="#b6503a"/><rect x="1173" y="741" width="7" height="10" fill="#5f7a80" opacity="0.55"/><rect x="1193" y="741" width="7" height="10" fill="#5f7a80" opacity="0.55"/><rect x="1173" y="767" width="7" height="10" fill="#5f7a80" opacity="0.55"/><rect x="1193" y="767" width="7" height="10" fill="#5f7a80" opacity="0.55"/><rect x="1173" y="793" width="7" height="10" fill="#5f7a80" opacity="0.55"/><rect x="1193" y="793" width="7" height="10" fill="#5f7a80" opacity="0.55"/><rect x="606" y="776" width="58" height="44" fill="#efe7d6" opacity="0.96"/><polygon points="603,776 667,776 635,759" fill="#b6503a"/><rect x="1034" y="744" width="55" height="76" fill="#efe7d6" opacity="0.96"/><polygon points="1031,744 1093,744 1062,728" fill="#b6503a"/><rect x="1042" y="760" width="7" height="10" fill="#5f7a80" opacity="0.55"/><rect x="1062" y="760" width="7" height="10" fill="#5f7a80" opacity="0.55"/><rect x="1042" y="786" width="7" height="10" fill="#5f7a80" opacity="0.55"/><rect x="1062" y="786" width="7" height="10" fill="#5f7a80" opacity="0.55"/><rect x="801" y="771" width="58" height="49" fill="#f7efe0" opacity="0.96"/><polygon points="798,771 861,771 829,754" fill="#b6503a"/><rect x="695" y="713" width="45" height="107" fill="#efe7d6" opacity="0.96"/><polygon points="692,713 742,713 717,696" fill="#b6503a"/><rect x="703" y="729" width="7" height="10" fill="#5f7a80" opacity="0.55"/><rect x="723" y="729" width="7" height="10" fill="#5f7a80" opacity="0.55"/><rect x="703" y="755" width="7" height="10" fill="#5f7a80" opacity="0.55"/><rect x="723" y="755" width="7" height="10" fill="#5f7a80" opacity="0.55"/><rect x="703" y="781" width="7" height="10" fill="#5f7a80" opacity="0.55"/><rect x="723" y="781" width="7" height="10" fill="#5f7a80" opacity="0.55"/><rect x="1333" y="763" width="48" height="57" fill="#efe7d6" opacity="0.96"/><polygon points="1330,763 1383,763 1356,742" fill="#b6503a"/><rect x="1170" y="726" width="42" height="94" fill="#e9dcc4" opacity="0.96"/><polygon points="1167,726 1215,726 1191,714" fill="#b6503a"/><rect x="1178" y="742" width="7" height="10" fill="#5f7a80" opacity="0.55"/><rect x="1198" y="742" width="7" height="10" fill="#5f7a80" opacity="0.55"/><rect x="1178" y="768" width="7" height="10" fill="#5f7a80" opacity="0.55"/><rect x="1198" y="768" width="7" height="10" fill="#5f7a80" opacity="0.55"/><rect x="1178" y="794" width="7" height="10" fill="#5f7a80" opacity="0.55"/><rect x="1198" y="794" width="7" height="10" fill="#5f7a80" opacity="0.55"/><rect x="255" y="727" width="58" height="93" fill="#efe7d6" opacity="0.96"/><polygon points="252,727 316,727 284,712" fill="#b6503a"/><rect x="263" y="743" width="7" height="10" fill="#5f7a80" opacity="0.55"/><rect x="283" y="743" width="7" height="10" fill="#5f7a80" opacity="0.55"/><rect x="303" y="743" width="7" height="10" fill="#5f7a80" opacity="0.55"/><rect x="263" y="769" width="7" height="10" fill="#5f7a80" opacity="0.55"/><rect x="283" y="769" width="7" height="10" fill="#5f7a80" opacity="0.55"/><rect x="303" y="769" width="7" height="10" fill="#5f7a80" opacity="0.55"/><rect x="263" y="795" width="7" height="10" fill="#5f7a80" opacity="0.55"/><rect x="283" y="795" width="7" height="10" fill="#5f7a80" opacity="0.55"/><rect x="303" y="795" width="7" height="10" fill="#5f7a80" opacity="0.55"/><rect x="449" y="701" width="51" height="119" fill="#e9dcc4" opacity="0.96"/><polygon points="446,701 503,701 475,682" fill="#b6503a"/><rect x="457" y="717" width="7" height="10" fill="#5f7a80" opacity="0.55"/><rect x="477" y="717" width="7" height="10" fill="#5f7a80" opacity="0.55"/><rect x="457" y="743" width="7" height="10" fill="#5f7a80" opacity="0.55"/><rect x="477" y="743" width="7" height="10" fill="#5f7a80" opacity="0.55"/><rect x="457" y="769" width="7" height="10" fill="#5f7a80" opacity="0.55"/><rect x="477" y="769" width="7" height="10" fill="#5f7a80" opacity="0.55"/><rect x="457" y="795" width="7" height="10" fill="#5f7a80" opacity="0.55"/><rect x="477" y="795" width="7" height="10" fill="#5f7a80" opacity="0.55"/><rect x="456" y="728" width="59" height="92" fill="#e9dcc4" opacity="0.96"/><polygon points="453,728 518,728 486,708" fill="#b6503a"/><rect x="464" y="744" width="7" height="10" fill="#5f7a80" opacity="0.55"/><rect x="484" y="744" width="7" height="10" fill="#5f7a80" opacity="0.55"/><rect x="504" y="744" width="7" height="10" fill="#5f7a80" opacity="0.55"/><rect x="464" y="770" width="7" height="10" fill="#5f7a80" opacity="0.55"/><rect x="484" y="770" width="7" height="10" fill="#5f7a80" opacity="0.55"/><rect x="504" y="770" width="7" height="10" fill="#5f7a80" opacity="0.55"/><rect x="464" y="796" width="7" height="10" fill="#5f7a80" opacity="0.55"/><rect x="484" y="796" width="7" height="10" fill="#5f7a80" opacity="0.55"/><rect x="504" y="796" width="7" height="10" fill="#5f7a80" opacity="0.55"/><rect x="928" y="727" width="38" height="93" fill="#efe7d6" opacity="0.96"/><polygon points="925,727 968,727 947,709" fill="#b6503a"/><rect x="936" y="743" width="7" height="10" fill="#5f7a80" opacity="0.55"/><rect x="936" y="769" width="7" height="10" fill="#5f7a80" opacity="0.55"/><rect x="936" y="795" width="7" height="10" fill="#5f7a80" opacity="0.55"/><rect x="577" y="722" width="45" height="98" fill="#efe7d6" opacity="0.96"/><polygon points="574,722 626,722 600,703" fill="#b6503a"/><rect x="585" y="738" width="7" height="10" fill="#5f7a80" opacity="0.55"/><rect x="605" y="738" width="7" height="10" fill="#5f7a80" opacity="0.55"/><rect x="585" y="764" width="7" height="10" fill="#5f7a80" opacity="0.55"/><rect x="605" y="764" width="7" height="10" fill="#5f7a80" opacity="0.55"/><rect x="585" y="790" width="7" height="10" fill="#5f7a80" opacity="0.55"/><rect x="605" y="790" width="7" height="10" fill="#5f7a80" opacity="0.55"/><rect x="606" y="748" width="51" height="72" fill="#efe7d6" opacity="0.96"/><polygon points="603,748 660,748 632,736" fill="#b6503a"/><rect x="614" y="764" width="7" height="10" fill="#5f7a80" opacity="0.55"/><rect x="634" y="764" width="7" height="10" fill="#5f7a80" opacity="0.55"/><rect x="614" y="790" width="7" height="10" fill="#5f7a80" opacity="0.55"/><rect x="634" y="790" width="7" height="10" fill="#5f7a80" opacity="0.55"/><rect x="381" y="720" width="49" height="100" fill="#efe7d6" opacity="0.96"/><polygon points="378,720 434,720 406,700" fill="#b6503a"/><rect x="389" y="736" width="7" height="10" fill="#5f7a80" opacity="0.55"/><rect x="409" y="736" width="7" height="10" fill="#5f7a80" opacity="0.55"/><rect x="389" y="762" width="7" height="10" fill="#5f7a80" opacity="0.55"/><rect x="409" y="762" width="7" height="10" fill="#5f7a80" opacity="0.55"/><rect x="389" y="788" width="7" height="10" fill="#5f7a80" opacity="0.55"/><rect x="409" y="788" width="7" height="10" fill="#5f7a80" opacity="0.55"/><rect x="850" y="721" width="58" height="99" fill="#efe7d6" opacity="0.96"/><polygon points="847,721 911,721 879,702" fill="#b6503a"/><rect x="858" y="737" width="7" height="10" fill="#5f7a80" opacity="0.55"/><rect x="878" y="737" width="7" height="10" fill="#5f7a80" opacity="0.55"/><rect x="898" y="737" width="7" height="10" fill="#5f7a80" opacity="0.55"/><rect x="858" y="763" width="7" height="10" fill="#5f7a80" opacity="0.55"/><rect x="878" y="763" width="7" height="10" fill="#5f7a80" opacity="0.55"/><rect x="898" y="763" width="7" height="10" fill="#5f7a80" opacity="0.55"/><rect x="858" y="789" width="7" height="10" fill="#5f7a80" opacity="0.55"/><rect x="878" y="789" width="7" height="10" fill="#5f7a80" opacity="0.55"/><rect x="898" y="789" width="7" height="10" fill="#5f7a80" opacity="0.55"/><rect x="326" y="735" width="36" height="85" fill="#efe7d6" opacity="0.96"/><polygon points="323,735 365,735 344,714" fill="#b6503a"/><rect x="334" y="751" width="7" height="10" fill="#5f7a80" opacity="0.55"/><rect x="334" y="777" width="7" height="10" fill="#5f7a80" opacity="0.55"/><rect x="334" y="803" width="7" height="10" fill="#5f7a80" opacity="0.55"/><rect x="252" y="745" width="52" height="75" fill="#e9dcc4" opacity="0.96"/><polygon points="249,745 307,745 278,727" fill="#b6503a"/><rect x="260" y="761" width="7" height="10" fill="#5f7a80" opacity="0.55"/><rect x="280" y="761" width="7" height="10" fill="#5f7a80" opacity="0.55"/><rect x="260" y="787" width="7" height="10" fill="#5f7a80" opacity="0.55"/><rect x="280" y="787" width="7" height="10" fill="#5f7a80" opacity="0.55"/><rect x="1317" y="749" width="46" height="71" fill="#efe7d6" opacity="0.96"/><polygon points="1314,749 1365,749 1340,731" fill="#b6503a"/><rect x="1325" y="765" width="7" height="10" fill="#5f7a80" opacity="0.55"/><rect x="1345" y="765" width="7" height="10" fill="#5f7a80" opacity="0.55"/><rect x="1325" y="791" width="7" height="10" fill="#5f7a80" opacity="0.55"/><rect x="1345" y="791" width="7" height="10" fill="#5f7a80" opacity="0.55"/><rect x="701" y="702" width="40" height="118" fill="#efe7d6" opacity="0.96"/><polygon points="698,702 744,702 721,686" fill="#b6503a"/><rect x="709" y="718" width="7" height="10" fill="#5f7a80" opacity="0.55"/><rect x="729" y="718" width="7" height="10" fill="#5f7a80" opacity="0.55"/><rect x="709" y="744" width="7" height="10" fill="#5f7a80" opacity="0.55"/><rect x="729" y="744" width="7" height="10" fill="#5f7a80" opacity="0.55"/><rect x="709" y="770" width="7" height="10" fill="#5f7a80" opacity="0.55"/><rect x="729" y="770" width="7" height="10" fill="#5f7a80" opacity="0.55"/><rect x="709" y="796" width="7" height="10" fill="#5f7a80" opacity="0.55"/><rect x="729" y="796" width="7" height="10" fill="#5f7a80" opacity="0.55"/><rect x="975" y="766" width="35" height="54" fill="#e9dcc4" opacity="0.96"/><polygon points="972,766 1013,766 992,751" fill="#b6503a"/><rect x="1236" y="707" width="47" height="113" fill="#e9dcc4" opacity="0.96"/><polygon points="1233,707 1286,707 1260,695" fill="#b6503a"/><rect x="1244" y="723" width="7" height="10" fill="#5f7a80" opacity="0.55"/><rect x="1264" y="723" width="7" height="10" fill="#5f7a80" opacity="0.55"/><rect x="1244" y="749" width="7" height="10" fill="#5f7a80" opacity="0.55"/><rect x="1264" y="749" width="7" height="10" fill="#5f7a80" opacity="0.55"/><rect x="1244" y="775" width="7" height="10" fill="#5f7a80" opacity="0.55"/><rect x="1264" y="775" width="7" height="10" fill="#5f7a80" opacity="0.55"/><rect x="1244" y="801" width="7" height="10" fill="#5f7a80" opacity="0.55"/><rect x="1264" y="801" width="7" height="10" fill="#5f7a80" opacity="0.55"/><rect x="742" y="756" width="35" height="64" fill="#efe7d6" opacity="0.96"/><polygon points="739,756 781,756 760,742" fill="#b6503a"/><rect x="750" y="772" width="7" height="10" fill="#5f7a80" opacity="0.55"/><rect x="750" y="798" width="7" height="10" fill="#5f7a80" opacity="0.55"/><rect x="1384" y="706" width="42" height="114" fill="#f7efe0" opacity="0.96"/><polygon points="1381,706 1429,706 1405,687" fill="#b6503a"/><rect x="1392" y="722" width="7" height="10" fill="#5f7a80" opacity="0.55"/><rect x="1412" y="722" width="7" height="10" fill="#5f7a80" opacity="0.55"/><rect x="1392" y="748" width="7" height="10" fill="#5f7a80" opacity="0.55"/><rect x="1412" y="748" width="7" height="10" fill="#5f7a80" opacity="0.55"/><rect x="1392" y="774" width="7" height="10" fill="#5f7a80" opacity="0.55"/><rect x="1412" y="774" width="7" height="10" fill="#5f7a80" opacity="0.55"/><rect x="1392" y="800" width="7" height="10" fill="#5f7a80" opacity="0.55"/><rect x="1412" y="800" width="7" height="10" fill="#5f7a80" opacity="0.55"/><rect x="810" y="760" width="40" height="60" fill="#f7efe0" opacity="0.96"/><polygon points="807,760 853,760 830,746" fill="#b6503a"/><rect x="818" y="776" width="7" height="10" fill="#5f7a80" opacity="0.55"/><rect x="838" y="776" width="7" height="10" fill="#5f7a80" opacity="0.55"/><rect x="818" y="802" width="7" height="10" fill="#5f7a80" opacity="0.55"/><rect x="838" y="802" width="7" height="10" fill="#5f7a80" opacity="0.55"/><rect x="305" y="720" width="57" height="100" fill="#f7efe0" opacity="0.96"/><polygon points="302,720 365,720 333,705" fill="#b6503a"/><rect x="313" y="736" width="7" height="10" fill="#5f7a80" opacity="0.55"/><rect x="333" y="736" width="7" height="10" fill="#5f7a80" opacity="0.55"/><rect x="313" y="762" width="7" height="10" fill="#5f7a80" opacity="0.55"/><rect x="333" y="762" width="7" height="10" fill="#5f7a80" opacity="0.55"/><rect x="313" y="788" width="7" height="10" fill="#5f7a80" opacity="0.55"/><rect x="333" y="788" width="7" height="10" fill="#5f7a80" opacity="0.55"/><rect x="710" y="758" width="43" height="62" fill="#f7efe0" opacity="0.96"/><polygon points="707,758 756,758 732,744" fill="#b6503a"/><rect x="718" y="774" width="7" height="10" fill="#5f7a80" opacity="0.55"/><rect x="738" y="774" width="7" height="10" fill="#5f7a80" opacity="0.55"/><rect x="718" y="800" width="7" height="10" fill="#5f7a80" opacity="0.55"/><rect x="738" y="800" width="7" height="10" fill="#5f7a80" opacity="0.55"/><rect x="510" y="779" width="53" height="41" fill="#f7efe0" opacity="0.96"/><polygon points="507,779 566,779 536,760" fill="#b6503a"/><rect x="211" y="733" width="46" height="87" fill="#efe7d6" opacity="0.96"/><polygon points="208,733 260,733 234,712" fill="#b6503a"/><rect x="219" y="749" width="7" height="10" fill="#5f7a80" opacity="0.55"/><rect x="239" y="749" width="7" height="10" fill="#5f7a80" opacity="0.55"/><rect x="219" y="775" width="7" height="10" fill="#5f7a80" opacity="0.55"/><rect x="239" y="775" width="7" height="10" fill="#5f7a80" opacity="0.55"/><rect x="219" y="801" width="7" height="10" fill="#5f7a80" opacity="0.55"/><rect x="239" y="801" width="7" height="10" fill="#5f7a80" opacity="0.55"/><rect x="769" y="635" width="35" height="185" fill="#efe7d6"/><polygon points="765,635 808,635 787,601" fill="#b6503a"/><rect x="777" y="659" width="10" height="18" fill="#5f7a80" opacity="0.5"/>
</svg>