<svg xmlns="http://www.w3.org/2000/svg" viewBox="0 0 1600 1000" preserveAspectRatio="xMidYMid slice">
  <defs>
    <linearGradient id="sky" x1="0" y1="0" x2="0" y2="1">
      <stop offset="0" stop-color="#eef1d8"/>
      <stop offset="1" stop-color="#cfe0a8"/>
    </linearGradient>
    <linearGradient id="sea" x1="0" y1="0" x2="0" y2="1">
      <stop offset="0" stop-color="#6f9ec0"/>
      <stop offset="1" stop-color="#54683a"/>
    </linearGradient>
  </defs>
  <rect width="1600" height="1000" fill="url(#sky)"/><circle cx="1240" cy="196" r="100" fill="#fbf6e0" opacity="0.95"/><polygon points="0,1000 0,493 267,508 533,480 800,511 1067,523 1333,502 1600,512 1600,1000" fill="#9caf6a" opacity="0.75"/><polygon points="0,1000 0,617 267,660 533,673 800,668 1067,678 1333,640 1600,633 1600,1000" fill="#7a8f52" opacity="0.9"/><polygon points="0,1000 0,797 229,795 457,818 686,817 914,827 1143,793 1371,816 1600,792 1600,1000" fill="#54683a"/><ellipse cx="751" cy="593" rx="14" ry="50" fill="#54683a"/><ellipse cx="620" cy="592" rx="14" ry="64" fill="#54683a"/><ellipse cx="154" cy="597" rx="11" ry="47" fill="#54683a"/><ellipse cx="935" cy="599" rx="12" ry="44" fill="#54683a"/><ellipse cx="1407" cy="622" rx="10" ry="33" fill="#54683a"/><ellipse cx="417" cy="602" rx="12" ry="42" fill="#54683a"/><ellipse cx="483" cy="586" rx="9" ry="40" fill="#54683a"/>
</svg>