<svg xmlns="http://www.w3.org/2000/svg" viewBox="0 0 1600 1000" preserveAspectRatio="xMidYMid slice">
  <defs>
    <linearGradient id="sky" x1="0" y1="0" x2="0" y2="1">
      <stop offset="0" stop-color="#dbe6c8"/>
      <stop offset="1" stop-color="#9bb56f"/>
    </linearGradient>
    <linearGradient id="sea" x1="0" y1="0" x2="0" y2="1">
      <stop offset="0" stop-color="#2f6d7a"/>
      <stop offset="1" stop-color="#3c4a3a"/>
    </linearGradient>
  </defs>
  <rect width="1600" height="1000" fill="url(#sky)"/><circle cx="1103" cy="318" r="103" fill="#f2f2d0" opacity="0.95"/><polygon points="0,1000 0,535 200,566 400,561 600,533 800,539 1000,525 1200,558 1400,535 1600,576 1600,1000" fill="#8fa07a" opacity="0.8"/><polygon points="0,1000 0,809 229,818 457,816 686,834 914,839 1143,822 1371,813 1600,828 1600,1000" fill="#5f7358"/><rect x="611" y="729" width="42" height="91" fill="#e7e0cf" opacity="0.96"/><polygon points="608,729 656,729 632,715" fill="#a9542f"/><rect x="619" y="745" width="7" height="10" fill="#3c4a3a" opacity="0.55"/><rect x="639" y="745" width="7" height="10" fill="#3c4a3a" opacity="0.55"/><rect x="619" y="771" width="7" height="10" fill="#3c4a3a" opacity="0.55"/><rect x="639" y="771" width="7" height="10" fill="#3c4a3a" opacity="0.55"/><rect x="619" y="797" width="7" height="10" fill="#3c4a3a" opacity="0.55"/><rect x="639" y="797" width="7" height="10" fill="#3c4a3a" opacity="0.55"/><rect x="207" y="737" width="34" height="83" fill="#f7efe0" opacity="0.96"/><polygon points="204,737 244,737 224,718" fill="#a9542f"/><rect x="215" y="753" width="7" height="10" fill="#3c4a3a" opacity="0.55"/><rect x="215" y="779" width="7" height="10" fill="#3c4a3a" opacity="0.55"/><rect x="215" y="805" width="7" height="10" fill="#3c4a3a" opacity="0.55"/><rect x="1367" y="752" width="41" height="68" fill="#e7e0cf" opacity="0.96"/><polygon points="1364,752 1410,752 1387,740" fill="#a9542f"/><rect x="1375" y="768" width="7" height="10" fill="#3c4a3a" opacity="0.55"/><rect x="1395" y="768" width="7" height="10" fill="#3c4a3a" opacity="0.55"/><rect x="1375" y="794" width="7" height="10" fill="#3c4a3a" opacity="0.55"/><rect x="1395" y="794" width="7" height="10" fill="#3c4a3a" opacity="0.55"/><rect x="800" y="741" width="42" height="79" fill="#f7efe0" opacity="0.96"/><polygon points="797,741 845,741 821,723" fill="#a9542f"/><rect x="808" y="757" width="7" height="10" fill="#3c4a3a" opacity="0.55"/><rect x="828" y="757" width="7" height="10" fill="#3c4a3a" opacity="0.55"/><rect x="808" y="783" width="7" height="10" fill="#3c4a3a" opacity="0.55"/><rect x="828" y="783" width="7" height="10" fill="#3c4a3a" opacity="0.55"/><rect x="717" y="735" width="59" height="85" fill="#f7efe0" opacity="0.96"/><polygon points="714,735 779,735 746,720" fill="#a9542f"/><rect x="725" y="751" width="7" height="10" fill="#3c4a3a" opacity="0.55"/><rect x="745" y="751" width="7" height="10" fill="#3c4a3a" opacity="0.55"/><rect x="765" y="751" width="7" height="10" fill="#3c4a3a" opacity="0.55"/><rect x="725" y="777" width="7" height="10" fill="#3c4a3a" opacity="0.55"/><rect x="745" y="777" width="7" height="10" fill="#3c4a3a" opacity="0.55"/><rect x="765" y="777" width="7" height="10" fill="#3c4a3a" opacity="0.55"/><rect x="725" y="803" width="7" height="10" fill="#3c4a3a" opacity="0.55"/><rect x="745" y="803" width="7" height="10" fill="#3c4a3a" opacity="0.55"/><rect x="765" y="803" width="7" height="10" fill="#3c4a3a" opacity="0.55"/><rect x="641" y="722" width="60" height="98" fill="#e7e0cf" opacity="0.96"/><polygon points="638,722 705,722 671,709" fill="#a9542f"/><rect x="649" y="738" width="7" height="10" fill="#3c4a3a" opacity="0.55"/><rect x="669" y="738" width="7" height="10" fill="#3c4a3a" opacity="0.55"/><rect x="689" y="738" width="7" height="10" fill="#3c4a3a" opacity="0.55"/><rect x="649" y="764" width="7" height="10" fill="#3c4a3a" opacity="0.55"/><rect x="669" y="764" width="7" height="10" fill="#3c4a3a" opacity="0.55"/><rect x="689" y="764" width="7" height="10" fill="#3c4a3a" opacity="0.55"/><rect x="649" y="790" width="7" height="10" fill="#3c4a3a" opacity="0.55"/><rect x="669" y="790" width="7" height="10" fill="#3c4a3a" opacity="0.55"/><rect x="689" y="790" width="7" height="10" fill="#3c4a3a" opacity="0.55"/><rect x="323" y="734" width="49" height="86" fill="#e7e0cf" opacity="0.96"/><polygon points="320,734 375,734 348,714" fill="#a9542f"/><rect x="331" y="750" width="7" height="10" fill="#3c4a3a" opacity="0.55"/><rect x="351" y="750" width="7" height="10" fill="#3c4a3a" opacity="0.55"/><rect x="331" y="776" width="7" height="10" fill="#3c4a3a" opacity="0.55"/><rect x="351" y="776" width="7" height="10" fill="#3c4a3a" opacity="0.55"/><rect x="331" y="802" width="7" height="10" fill="#3c4a3a" opacity="0.55"/><rect x="351" y="802" width="7" height="10" fill="#3c4a3a" opacity="0.55"/><rect x="911" y="766" width="51" height="54" fill="#e7e0cf" opacity="0.96"/><polygon points="908,766 965,766 937,746" fill="#a9542f"/><rect x="818" y="730" width="49" height="90" fill="#e7e0cf" opacity="0.96"/><polygon points="815,730 870,730 843,713" fill="#a9542f"/><rect x="826" y="746" width="7" height="10" fill="#3c4a3a" opacity="0.55"/><rect x="846" y="746" width="7" height="10" fill="#3c4a3a" opacity="0.55"/><rect x="826" y="772" width="7" height="10" fill="#3c4a3a" opacity="0.55"/><rect x="846" y="772" width="7" height="10" fill="#3c4a3a" opacity="0.55"/><rect x="826" y="798" width="7" height="10" fill="#3c4a3a" opacity="0.55"/><rect x="846" y="798" width="7" height="10" fill="#3c4a3a" opacity="0.55"/><rect x="956" y="736" width="41" height="84" fill="#e7e0cf" opacity="0.96"/><polygon points="953,736 1000,736 977,723" fill="#a9542f"/><rect x="964" y="752" width="7" height="10" fill="#3c4a3a" opacity="0.55"/><rect x="984" y="752" width="7" height="10" fill="#3c4a3a" opacity="0.55"/><rect x="964" y="778" width="7" height="10" fill="#3c4a3a" opacity="0.55"/><rect x="984" y="778" width="7" height="10" fill="#3c4a3a" opacity="0.55"/><rect x="964" y="804" width="7" height="10" fill="#3c4a3a" opacity="0.55"/><rect x="984" y="804" width="7" height="10" fill="#3c4a3a" opacity="0.55"/><rect x="1341" y="730" width="60" height="90" fill="#f7efe0" opacity="0.96"/><polygon points="1338,730 1403,730 1370,710" fill="#a9542f"/><rect x="1349" y="746" width="7" height="10" fill="#3c4a3a" opacity="0.55"/><rect x="1369" y="746" width="7" height="10" fill="#3c4a3a" opacity="0.55"/><rect x="1389" y="746" width="7" height="10" fill="#3c4a3a" opacity="0.55"/><rect x="1349" y="772" width="7" height="10" fill="#3c4a3a" opacity="0.55"/><rect x="1369" y="772" width="7" height="10" fill="#3c4a3a" opacity="0.55"/><rect x="1389" y="772" width="7" height="10" fill="#3c4a3a" opacity="0.55"/><rect x="1349" y="798" width="7" height="10" fill="#3c4a3a" opacity="0.55"/><rect x="1369" y="798" width="7" height="10" fill="#3c4a3a" opacity="0.55"/><rect x="1389" y="798" width="7" height="10" fill="#3c4a3a" opacity="0.55"/><rect x="551" y="701" width="54" height="119" fill="#e7e0cf" opacity="0.96"/><polygon points="548,701 608,701 578,688" fill="#a9542f"/><rect x="559" y="717" width="7" height="10" fill="#3c4a3a" opacity="0.55"/><rect x="579" y="717" width="7" height="10" fill="#3c4a3a" opacity="0.55"/><rect x="559" y="743" width="7" height="10" fill="#3c4a3a" opacity="0.55"/><rect x="579" y="743" width="7" height="10" fill="#3c4a3a" opacity="0.55"/><rect x="559" y="769" width="7" height="10" fill="#3c4a3a" opacity="0.55"/><rect x="579" y="769" width="7" height="10" fill="#3c4a3a" opacity="0.55"/><rect x="559" y="795" width="7" height="10" fill="#3c4a3a" opacity="0.55"/><rect x="579" y="795" width="7" height="10" fill="#3c4a3a" opacity="0.55"/><rect x="576" y="764" width="47" height="56" fill="#e7e0cf" opacity="0.96"/><polygon points="573,764 627,764 600,744" fill="#a9542f"/><rect x="961" y="701" width="53" height="119" fill="#e7e0cf" opacity="0.96"/><polygon points="958,701 1017,701 987,681" fill="#a9542f"/><rect x="969" y="717" width="7" height="10" fill="#3c4a3a" opacity="0.55"/><rect x="989" y="717" width="7" height="10" fill="#3c4a3a" opacity="0.55"/><rect x="969" y="743" width="7" height="10" fill="#3c4a3a" opacity="0.55"/><rect x="989" y="743" width="7" height="10" fill="#3c4a3a" opacity="0.55"/><rect x="969" y="769" width="7" height="10" fill="#3c4a3a" opacity="0.55"/><rect x="989" y="769" width="7" height="10" fill="#3c4a3a" opacity="0.55"/><rect x="969" y="795" width="7" height="10" fill="#3c4a3a" opacity="0.55"/><rect x="989" y="795" width="7" height="10" fill="#3c4a3a" opacity="0.55"/><rect x="1130" y="709" width="45" height="111" fill="#e9dcc4" opacity="0.96"/><polygon points="1127,709 1177,709 1152,692" fill="#a9542f"/><rect x="1138" y="725" width="7" height="10" fill="#3c4a3a" opacity="0.55"/><rect x="1158" y="725" width="7" height="10" fill="#3c4a3a" opacity="0.55"/><rect x="1138" y="751" width="7" height="10" fill="#3c4a3a" opacity="0.55"/><rect x="1158" y="751" width="7" height="10" fill="#3c4a3a" opacity="0.55"/><rect x="1138" y="777" width="7" height="10" fill="#3c4a3a" opacity="0.55"/><rect x="1158" y="777" width="7" height="10" fill="#3c4a3a" opacity="0.55"/><rect x="1138" y="803" width="7" height="10" fill="#3c4a3a" opacity="0.55"/><rect x="1158" y="803" width="7" height="10" fill="#3c4a3a" opacity="0.55"/><rect x="653" y="757" width="42" height="63" fill="#e9dcc4" opacity="0.96"/><polygon points="650,757 698,757 674,738" fill="#a9542f"/><rect x="661" y="773" width="7" height="10" fill="#3c4a3a" opacity="0.55"/><rect x="681" y="773" width="7" height="10" fill="#3c4a3a" opacity="0.55"/><rect x="661" y="799" width="7" height="10" fill="#3c4a3a" opacity="0.55"/><rect x="681" y="799" width="7" height="10" fill="#3c4a3a" opacity="0.55"/><rect x="495" y="733" width="46" height="87" fill="#e7e0cf" opacity="0.96"/><polygon points="492,733 544,733 518,717" fill="#a9542f"/><rect x="503" y="749" width="7" height="10" fill="#3c4a3a" opacity="0.55"/><rect x="523" y="749" width="7" height="10" fill="#3c4a3a" opacity="0.55"/><rect x="503" y="775" width="7" height="10" fill="#3c4a3a" opacity="0.55"/><rect x="523" y="775" width="7" height="10" fill="#3c4a3a" opacity="0.55"/><rect x="503" y="801" width="7" height="10" fill="#3c4a3a" opacity="0.55"/><rect x="523" y="801" width="7" height="10" fill="#3c4a3a" opacity="0.55"/><rect x="1218" y="708" width="37" height="112" fill="#e9dcc4" opacity="0.96"/><polygon points="1215,708 1258,708 1237,691" fill="#a9542f"/><rect x="1226" y="724" width="7" height="10" fill="#3c4a3a" opacity="0.55"/><rect x="1226" y="750" width="7" height="10" fill="#3c4a3a" opacity="0.55"/><rect x="1226" y="776" width="7" height="10" fill="#3c4a3a" opacity="0.55"/><rect x="1226" y="802" width="7" height="10" fill="#3c4a3a" opacity="0.55"/><rect x="1061" y="708" width="46" height="112" fill="#e7e0cf" opacity="0.96"/><polygon points="1058,708 1110,708 1084,696" fill="#a9542f"/><rect x="1069" y="724" width="7" height="10" fill="#3c4a3a" opacity="0.55"/><rect x="1089" y="724" width="7" height="10" fill="#3c4a3a" opacity="0.55"/><rect x="1069" y="750" width="7" height="10" fill="#3c4a3a" opacity="0.55"/><rect x="1089" y="750" width="7" height="10" fill="#3c4a3a" opacity="0.55"/><rect x="1069" y="776" width="7" height="10" fill="#3c4a3a" opacity="0.55"/><rect x="1089" y="776" width="7" height="10" fill="#3c4a3a" opacity="0.55"/><rect x="1069" y="802" width="7" height="10" fill="#3c4a3a" opacity="0.55"/><rect x="1089" y="802" width="7" height="10" fill="#3c4a3a" opacity="0.55"/><rect x="391" y="769" width="51" height="51" fill="#f7efe0" opacity="0.96"/><polygon points="388,769 445,769 417,755" fill="#a9542f"/><rect x="552" y="716" width="42" height="104" fill="#f7efe0" opacity="0.96"/><polygon points="549,716 598,716 574,697" fill="#a9542f"/><rect x="560" y="732" width="7" height="10" fill="#3c4a3a" opacity="0.55"/><rect x="580" y="732" width="7" height="10" fill="#3c4a3a" opacity="0.55"/><rect x="560" y="758" width="7" height="10" fill="#3c4a3a" opacity="0.55"/><rect x="580" y="758" width="7" height="10" fill="#3c4a3a" opacity="0.55"/><rect x="560" y="784" width="7" height="10" fill="#3c4a3a" opacity="0.55"/><rect x="580" y="784" width="7" height="10" fill="#3c4a3a" opacity="0.55"/><rect x="360" y="703" width="41" height="117" fill="#e7e0cf" opacity="0.96"/><polygon points="357,703 404,703 380,691" fill="#a9542f"/><rect x="368" y="719" width="7" height="10" fill="#3c4a3a" opacity="0.55"/><rect x="388" y="719" width="7" height="10" fill="#3c4a3a" opacity="0.55"/><rect x="368" y="745" width="7" height="10" fill="#3c4a3a" opacity="0.55"/><rect x="388" y="745" width="7" height="10" fill="#3c4a3a" opacity="0.55"/><rect x="368" y="771" width="7" height="10" fill="#3c4a3a" opacity="0.55"/><rect x="388" y="771" width="7" height="10" fill="#3c4a3a" opacity="0.55"/><rect x="368" y="797" width="7" height="10" fill="#3c4a3a" opacity="0.55"/><rect x="388" y="797" width="7" height="10" fill="#3c4a3a" opacity="0.55"/><rect x="1286" y="718" width="38" height="102" fill="#e7e0cf" opacity="0.96"/><polygon points="1283,718 1327,718 1305,698" fill="#a9542f"/><rect x="1294" y="734" width="7" height="10" fill="#3c4a3a" opacity="0.55"/><rect x="1314" y="734" width="7" height="10" fill="#3c4a3a" opacity="0.55"/><rect x="1294" y="760" width="7" height="10" fill="#3c4a3a" opacity="0.55"/><rect x="1314" y="760" width="7" height="10" fill="#3c4a3a" opacity="0.55"/><rect x="1294" y="786" width="7" height="10" fill="#3c4a3a" opacity="0.55"/><rect x="1314" y="786" width="7" height="10" fill="#3c4a3a" opacity="0.55"/><rect x="1103" y="754" width="61" height="66" fill="#e7e0cf" opacity="0.96"/><polygon points="1100,754 1167,754 1134,732" fill="#a9542f"/><rect x="1111" y="770" width="7" height="10" fill="#3c4a3a" opacity="0.55"/><rect x="1131" y="770" width="7" height="10" fill="#3c4a3a" opacity="0.55"/><rect x="1151" y="770" width="7" height="10" fill="#3c4a3a" opacity="0.55"/><rect x="1111" y="796" width="7" height="10" fill="#3c4a3a" opacity="0.55"/><rect x="1131" y="796" width="7" height="10" fill="#3c4a3a" opacity="0.55"/><rect x="1151" y="796" width="7" height="10" fill="#3c4a3a" opacity="0.55"/><rect x="903" y="713" width="52" height="107" fill="#f7efe0" opacity="0.96"/><polygon points="900,713 958,713 929,692" fill="#a9542f"/><rect x="911" y="729" width="7" height="10" fill="#3c4a3a" opacity="0.55"/><rect x="931" y="729" width="7" height="10" fill="#3c4a3a" opacity="0.55"/><rect x="911" y="755" width="7" height="10" fill="#3c4a3a" opacity="0.55"/><rect x="931" y="755" width="7" height="10" fill="#3c4a3a" opacity="0.55"/><rect x="911" y="781" width="7" height="10" fill="#3c4a3a" opacity="0.55"/><rect x="931" y="781" width="7" height="10" fill="#3c4a3a" opacity="0.55"/><rect x="732" y="744" width="53" height="76" fill="#e7e0cf" opacity="0.96"/><polygon points="729,744 789,744 759,731" fill="#a9542f"/><rect x="740" y="760" width="7" height="10" fill="#3c4a3a" opacity="0.55"/><rect x="760" y="760" width="7" height="10" fill="#3c4a3a" opacity="0.55"/><rect x="740" y="786" width="7" height="10" fill="#3c4a3a" opacity="0.55"/><rect x="760" y="786" width="7" height="10" fill="#3c4a3a" opacity="0.55"/><rect x="1148" y="739" width="40" height="81" fill="#e7e0cf" opacity="0.96"/><polygon points="1145,739 1192,739 1168,723" fill="#a9542f"/><rect x="1156" y="755" width="7" height="10" fill="#3c4a3a" opacity="0.55"/><rect x="1176" y="755" width="7" height="10" fill="#3c4a3a" opacity="0.55"/><rect x="1156" y="781" width="7" height="10" fill="#3c4a3a" opacity="0.55"/><rect x="1176" y="781" width="7" height="10" fill="#3c4a3a" opacity="0.55"/><rect x="628" y="708" width="38" height="112" fill="#e9dcc4" opacity="0.96"/><polygon points="625,708 669,708 647,694" fill="#a9542f"/><rect x="636" y="724" width="7" height="10" fill="#3c4a3a" opacity="0.55"/><rect x="636" y="750" width="7" height="10" fill="#3c4a3a" opacity="0.55"/><rect x="636" y="776" width="7" height="10" fill="#3c4a3a" opacity="0.55"/><rect x="636" y="802" width="7" height="10" fill="#3c4a3a" opacity="0.55"/><rect x="992" y="703" width="58" height="117" fill="#e7e0cf" opacity="0.96"/><polygon points="989,703 1052,703 1021,685" fill="#a9542f"/><rect x="1000" y="719" width="7" height="10" fill="#3c4a3a" opacity="0.55"/><rect x="1020" y="719" width="7" height="10" fill="#3c4a3a" opacity="0.55"/><rect x="1000" y="745" width="7" height="10" fill="#3c4a3a" opacity="0.55"/><rect x="1020" y="745" width="7" height="10" fill="#3c4a3a" opacity="0.55"/><rect x="1000" y="771" width="7" height="10" fill="#3c4a3a" opacity="0.55"/><rect x="1020" y="771" width="7" height="10" fill="#3c4a3a" opacity="0.55"/><rect x="1000" y="797" width="7" height="10" fill="#3c4a3a" opacity="0.55"/><rect x="1020" y="797" width="7" height="10" fill="#3c4a3a" opacity="0.55"/><rect x="256" y="776" width="34" height="44" fill="#e7e0cf" opacity="0.96"/><polygon points="253,776 293,776 273,761" fill="#a9542f"/><rect x="432" y="727" width="42" height="93" fill="#f7efe0" opacity="0.96"/><polygon points="429,727 477,727 453,710" fill="#a9542f"/><rect x="440" y="743" width="7" height="10" fill="#3c4a3a" opacity="0.55"/><rect x="460" y="743" width="7" height="10" fill="#3c4a3a" opacity="0.55"/><rect x="440" y="769" width="7" height="10" fill="#3c4a3a" opacity="0.55"/><rect x="460" y="769" width="7" height="10" fill="#3c4a3a" opacity="0.55"/><rect x="440" y="795" width="7" height="10" fill="#3c4a3a" opacity="0.55"/><rect x="460" y="795" width="7" height="10" fill="#3c4a3a" opacity="0.55"/><rect x="568" y="754" width="55" height="66" fill="#e7e0cf" opacity="0.96"/><polygon points="565,754 625,754 595,740" fill="#a9542f"/><rect x="576" y="770" width="7" height="10" fill="#3c4a3a" opacity="0.55"/><rect x="596" y="770" width="7" height="10" fill="#3c4a3a" opacity="0.55"/><rect x="576" y="796" width="7" height="10" fill="#3c4a3a" opacity="0.55"/><rect x="596" y="796" width="7" height="10" fill="#3c4a3a" opacity="0.55"/><rect x="675" y="707" width="40" height="113" fill="#e7e0cf" opacity="0.96"/><polygon points="672,707 718,707 695,685" fill="#a9542f"/><rect x="683" y="723" width="7" height="10" fill="#3c4a3a" opacity="0.55"/><rect x="703" y="723" width="7" height="10" fill="#3c4a3a" opacity="0.55"/><rect x="683" y="749" width="7" height="10" fill="#3c4a3a" opacity="0.55"/><rect x="703" y="749" width="7" height="10" fill="#3c4a3a" opacity="0.55"/><rect x="683" y="775" width="7" height="10" fill="#3c4a3a" opacity="0.55"/><rect x="703" y="775" width="7" height="10" fill="#3c4a3a" opacity="0.55"/><rect x="683" y="801" width="7" height="10" fill="#3c4a3a" opacity="0.55"/><rect x="703" y="801" width="7" height="10" fill="#3c4a3a" opacity="0.55"/><rect x="438" y="760" width="41" height="60" fill="#e7e0cf" opacity="0.96"/><polygon points="435,760 481,760 458,745" fill="#a9542f"/><rect x="631" y="723" width="54" height="97" fill="#e7e0cf" opacity="0.96"/><polygon points="628,723 687,723 658,704" fill="#a9542f"/><rect x="639" y="739" width="7" height="10" fill="#3c4a3a" opacity="0.55"/><rect x="659" y="739" width="7" height="10" fill="#3c4a3a" opacity="0.55"/><rect x="639" y="765" width="7" height="10" fill="#3c4a3a" opacity="0.55"/><rect x="659" y="765" width="7" height="10" fill="#3c4a3a" opacity="0.55"/><rect x="639" y="791" width="7" height="10" fill="#3c4a3a" opacity="0.55"/><rect x="659" y="791" width="7" height="10" fill="#3c4a3a" opacity="0.55"/><rect x="312" y="745" width="39" height="75" fill="#e9dcc4" opacity="0.96"/><polygon points="309,745 353,745 331,730" fill="#a9542f"/><rect x="320" y="761" width="7" height="10" fill="#3c4a3a" opacity="0.55"/><rect x="340" y="761" width="7" height="10" fill="#3c4a3a" opacity="0.55"/><rect x="320" y="787" width="7" height="10" fill="#3c4a3a" opacity="0.55"/><rect x="340" y="787" width="7" height="10" fill="#3c4a3a" opacity="0.55"/><rect x="757" y="659" width="37" height="161" fill="#e7e0cf"/><polygon points="753,659 798,659 775,625" fill="#a9542f"/><rect x="765" y="683" width="10" height="18" fill="#3c4a3a" opacity="0.5"/>
</svg>