<svg xmlns="http://www.w3.org/2000/svg" viewBox="0 0 1600 1000" preserveAspectRatio="xMidYMid slice">
  <defs>
    <linearGradient id="sky" x1="0" y1="0" x2="0" y2="1">
      <stop offset="0" stop-color="#d2ecf3"/>
      <stop offset="1" stop-color="#8fd0e0"/>
    </linearGradient>
    <linearGradient id="sea" x1="0" y1="0" x2="0" y2="1">
      <stop offset="0" stop-color="#2f93b5"/>
      <stop offset="1" stop-color="#6b6f45"/>
    </linearGradient>
  </defs>
  <rect width="1600" height="1000" fill="url(#sky)"/><circle cx="1118" cy="238" r="104" fill="#fff6dd" opacity="0.95"/><rect x="1046" y="530" width="145" height="6" rx="3" fill="#fff6dd" opacity="0.50"/><rect x="1052" y="552" width="133" height="6" rx="3" fill="#fff6dd" opacity="0.44"/><rect x="1058" y="574" width="120" height="6" rx="3" fill="#fff6dd" opacity="0.38"/><rect x="1065" y="596" width="108" height="6" rx="3" fill="#fff6dd" opacity="0.32"/><rect x="1071" y="618" width="95" height="6" rx="3" fill="#fff6dd" opacity="0.26"/><rect x="1077" y="640" width="83" height="6" rx="3" fill="#fff6dd" opacity="0.20"/><polygon points="0,1000 0,520 0,299 320,469 640,264 960,439 1280,314 1600,456 1600,520 1600,1000" fill="#b6a878" opacity="0.9"/><rect x="0" y="520" width="1600" height="480" fill="url(#sea)"/><polygon points="992,1000 992,560 1600,300 1600,1000" fill="#8f8a5e"/><rect x="1264" y="448" width="63" height="102" fill="#f7efe0" opacity="0.96"/><polygon points="1261,448 1331,448 1296,433" fill="#c06a3a"/><rect x="1272" y="464" width="7" height="10" fill="#6b6f45" opacity="0.55"/><rect x="1292" y="464" width="7" height="10" fill="#6b6f45" opacity="0.55"/><rect x="1312" y="464" width="7" height="10" fill="#6b6f45" opacity="0.55"/><rect x="1272" y="490" width="7" height="10" fill="#6b6f45" opacity="0.55"/><rect x="1292" y="490" width="7" height="10" fill="#6b6f45" opacity="0.55"/><rect x="1312" y="490" width="7" height="10" fill="#6b6f45" opacity="0.55"/><rect x="1272" y="516" width="7" height="10" fill="#6b6f45" opacity="0.55"/><rect x="1292" y="516" width="7" height="10" fill="#6b6f45" opacity="0.55"/><rect x="1312" y="516" width="7" height="10" fill="#6b6f45" opacity="0.55"/><rect x="1339" y="449" width="41" height="101" fill="#e9dcc4" opacity="0.96"/><polygon points="1336,449 1383,449 1360,435" fill="#c06a3a"/><rect x="1347" y="465" width="7" height="10" fill="#6b6f45" opacity="0.55"/><rect x="1367" y="465" width="7" height="10" fill="#6b6f45" opacity="0.55"/><rect x="1347" y="491" width="7" height="10" fill="#6b6f45" opacity="0.55"/><rect x="1367" y="491" width="7" height="10" fill="#6b6f45" opacity="0.55"/><rect x="1347" y="517" width="7" height="10" fill="#6b6f45" opacity="0.55"/><rect x="1367" y="517" width="7" height="10" fill="#6b6f45" opacity="0.55"/><rect x="1200" y="478" width="42" height="72" fill="#f0e8d6" opacity="0.96"/><polygon points="1197,478 1244,478 1221,466" fill="#c06a3a"/><rect x="1208" y="494" width="7" height="10" fill="#6b6f45" opacity="0.55"/><rect x="1228" y="494" width="7" height="10" fill="#6b6f45" opacity="0.55"/><rect x="1208" y="520" width="7" height="10" fill="#6b6f45" opacity="0.55"/><rect x="1228" y="520" width="7" height="10" fill="#6b6f45" opacity="0.55"/><rect x="1303" y="486" width="48" height="64" fill="#e9dcc4" opacity="0.96"/><polygon points="1300,486 1354,486 1327,471" fill="#c06a3a"/><rect x="1311" y="502" width="7" height="10" fill="#6b6f45" opacity="0.55"/><rect x="1331" y="502" width="7" height="10" fill="#6b6f45" opacity="0.55"/><rect x="1311" y="528" width="7" height="10" fill="#6b6f45" opacity="0.55"/><rect x="1331" y="528" width="7" height="10" fill="#6b6f45" opacity="0.55"/><rect x="1438" y="467" width="56" height="83" fill="#f7efe0" opacity="0.96"/><polygon points="1435,467 1497,467 1466,447" fill="#c06a3a"/><rect x="1446" y="483" width="7" height="10" fill="#6b6f45" opacity="0.55"/><rect x="1466" y="483" width="7" height="10" fill="#6b6f45" opacity="0.55"/><rect x="1446" y="509" width="7" height="10" fill="#6b6f45" opacity="0.55"/><rect x="1466" y="509" width="7" height="10" fill="#6b6f45" opacity="0.55"/><rect x="1446" y="535" width="7" height="10" fill="#6b6f45" opacity="0.55"/><rect x="1466" y="535" width="7" height="10" fill="#6b6f45" opacity="0.55"/><rect x="1220" y="486" width="38" height="64" fill="#f7efe0" opacity="0.96"/><polygon points="1217,486 1261,486 1239,471" fill="#c06a3a"/><rect x="1228" y="502" width="7" height="10" fill="#6b6f45" opacity="0.55"/><rect x="1248" y="502" width="7" height="10" fill="#6b6f45" opacity="0.55"/><rect x="1228" y="528" width="7" height="10" fill="#6b6f45" opacity="0.55"/><rect x="1248" y="528" width="7" height="10" fill="#6b6f45" opacity="0.55"/><rect x="1265" y="502" width="64" height="48" fill="#f7efe0" opacity="0.96"/><polygon points="1262,502 1332,502 1297,489" fill="#c06a3a"/><rect x="1122" y="495" width="60" height="55" fill="#f7efe0" opacity="0.96"/><polygon points="1119,495 1185,495 1152,476" fill="#c06a3a"/><rect x="1360" y="509" width="43" height="41" fill="#f0e8d6" opacity="0.96"/><polygon points="1357,509 1406,509 1382,493" fill="#c06a3a"/><rect x="1393" y="484" width="43" height="66" fill="#f0e8d6" opacity="0.96"/><polygon points="1390,484 1440,484 1415,465" fill="#c06a3a"/><rect x="1401" y="500" width="7" height="10" fill="#6b6f45" opacity="0.55"/><rect x="1421" y="500" width="7" height="10" fill="#6b6f45" opacity="0.55"/><rect x="1401" y="526" width="7" height="10" fill="#6b6f45" opacity="0.55"/><rect x="1421" y="526" width="7" height="10" fill="#6b6f45" opacity="0.55"/><rect x="1083" y="437" width="37" height="113" fill="#f0e8d6" opacity="0.96"/><polygon points="1080,437 1123,437 1102,422" fill="#c06a3a"/><rect x="1091" y="453" width="7" height="10" fill="#6b6f45" opacity="0.55"/><rect x="1091" y="479" width="7" height="10" fill="#6b6f45" opacity="0.55"/><rect x="1091" y="505" width="7" height="10" fill="#6b6f45" opacity="0.55"/><rect x="1091" y="531" width="7" height="10" fill="#6b6f45" opacity="0.55"/><rect x="1442" y="482" width="39" height="68" fill="#f0e8d6" opacity="0.96"/><polygon points="1439,482 1484,482 1462,462" fill="#c06a3a"/><rect x="1450" y="498" width="7" height="10" fill="#6b6f45" opacity="0.55"/><rect x="1470" y="498" width="7" height="10" fill="#6b6f45" opacity="0.55"/><rect x="1450" y="524" width="7" height="10" fill="#6b6f45" opacity="0.55"/><rect x="1470" y="524" width="7" height="10" fill="#6b6f45" opacity="0.55"/><path d="M0 560 q 400 14 800 0 t 800 0" stroke="#ffffff" stroke-opacity="0.12" fill="none" stroke-width="3"/><path d="M0 620 q 400 14 800 0 t 800 0" stroke="#ffffff" stroke-opacity="0.12" fill="none" stroke-width="3"/><path d="M0 680 q 400 14 800 0 t 800 0" stroke="#ffffff" stroke-opacity="0.12" fill="none" stroke-width="3"/><path d="M0 740 q 400 14 800 0 t 800 0" stroke="#ffffff" stroke-opacity="0.12" fill="none" stroke-width="3"/><path d="M0 800 q 400 14 800 0 t 800 0" stroke="#ffffff" stroke-opacity="0.12" fill="none" stroke-width="3"/>
</svg>