<svg xmlns="http://www.w3.org/2000/svg" viewBox="0 0 1600 1000" preserveAspectRatio="xMidYMid slice">
  <defs>
    <linearGradient id="sky" x1="0" y1="0" x2="0" y2="1">
      <stop offset="0" stop-color="#ffdca0"/>
      <stop offset="1" stop-color="#e8865f"/>
    </linearGradient>
    <linearGradient id="sea" x1="0" y1="0" x2="0" y2="1">
      <stop offset="0" stop-color="#2a8ca0"/>
      <stop offset="1" stop-color="#3f2c28"/>
    </linearGradient>
  </defs>
  <rect width="1600" height="1000" fill="url(#sky)"/><circle cx="1107" cy="300" r="104" fill="#fff1cf" opacity="0.95"/><rect x="1035" y="530" width="145" height="6" rx="3" fill="#fff1cf" opacity="0.50"/><rect x="1041" y="552" width="133" height="6" rx="3" fill="#fff1cf" opacity="0.44"/><rect x="1047" y="574" width="120" height="6" rx="3" fill="#fff1cf" opacity="0.38"/><rect x="1054" y="596" width="108" height="6" rx="3" fill="#fff1cf" opacity="0.32"/><rect x="1060" y="618" width="95" height="6" rx="3" fill="#fff1cf" opacity="0.26"/><rect x="1066" y="640" width="83" height="6" rx="3" fill="#fff1cf" opacity="0.20"/><polygon points="0,1000 0,520 0,267 320,459 640,271 960,448 1280,292 1600,454 1600,520 1600,1000" fill="#9a6b57" opacity="0.9"/><rect x="0" y="520" width="1600" height="480" fill="url(#sea)"/><polygon points="992,1000 992,560 1600,300 1600,1000" fill="#6f4a3f"/><rect x="1134" y="509" width="39" height="41" fill="#eaddc0" opacity="0.96"/><polygon points="1131,509 1176,509 1153,492" fill="#a34a2f"/><rect x="1289" y="505" width="35" height="45" fill="#eaddc0" opacity="0.96"/><polygon points="1286,505 1327,505 1306,484" fill="#a34a2f"/><rect x="1320" y="486" width="62" height="64" fill="#eaddc0" opacity="0.96"/><polygon points="1317,486 1384,486 1351,470" fill="#a34a2f"/><rect x="1328" y="502" width="7" height="10" fill="#3f2c28" opacity="0.55"/><rect x="1348" y="502" width="7" height="10" fill="#3f2c28" opacity="0.55"/><rect x="1368" y="502" width="7" height="10" fill="#3f2c28" opacity="0.55"/><rect x="1328" y="528" width="7" height="10" fill="#3f2c28" opacity="0.55"/><rect x="1348" y="528" width="7" height="10" fill="#3f2c28" opacity="0.55"/><rect x="1368" y="528" width="7" height="10" fill="#3f2c28" opacity="0.55"/><rect x="1491" y="501" width="57" height="49" fill="#eaddc0" opacity="0.96"/><polygon points="1488,501 1551,501 1519,480" fill="#a34a2f"/><rect x="1073" y="482" width="60" height="68" fill="#e9dcc4" opacity="0.96"/><polygon points="1070,482 1136,482 1103,465" fill="#a34a2f"/><rect x="1081" y="498" width="7" height="10" fill="#3f2c28" opacity="0.55"/><rect x="1101" y="498" width="7" height="10" fill="#3f2c28" opacity="0.55"/><rect x="1121" y="498" width="7" height="10" fill="#3f2c28" opacity="0.55"/><rect x="1081" y="524" width="7" height="10" fill="#3f2c28" opacity="0.55"/><rect x="1101" y="524" width="7" height="10" fill="#3f2c28" opacity="0.55"/><rect x="1121" y="524" width="7" height="10" fill="#3f2c28" opacity="0.55"/><rect x="1103" y="497" width="57" height="53" fill="#eaddc0" opacity="0.96"/><polygon points="1100,497 1163,497 1132,483" fill="#a34a2f"/><rect x="1214" y="505" width="57" height="45" fill="#e9dcc4" opacity="0.96"/><polygon points="1211,505 1274,505 1243,486" fill="#a34a2f"/><rect x="1412" y="503" width="58" height="47" fill="#e9dcc4" opacity="0.96"/><polygon points="1409,503 1473,503 1441,490" fill="#a34a2f"/><rect x="1094" y="470" width="57" height="80" fill="#eaddc0" opacity="0.96"/><polygon points="1091,470 1154,470 1122,452" fill="#a34a2f"/><rect x="1102" y="486" width="7" height="10" fill="#3f2c28" opacity="0.55"/><rect x="1122" y="486" width="7" height="10" fill="#3f2c28" opacity="0.55"/><rect x="1102" y="512" width="7" height="10" fill="#3f2c28" opacity="0.55"/><rect x="1122" y="512" width="7" height="10" fill="#3f2c28" opacity="0.55"/><rect x="1174" y="443" width="37" height="107" fill="#eaddc0" opacity="0.96"/><polygon points="1171,443 1214,443 1193,425" fill="#a34a2f"/><rect x="1182" y="459" width="7" height="10" fill="#3f2c28" opacity="0.55"/><rect x="1182" y="485" width="7" height="10" fill="#3f2c28" opacity="0.55"/><rect x="1182" y="511" width="7" height="10" fill="#3f2c28" opacity="0.55"/><rect x="1435" y="486" width="49" height="64" fill="#eaddc0" opacity="0.96"/><polygon points="1432,486 1486,486 1459,468" fill="#a34a2f"/><rect x="1443" y="502" width="7" height="10" fill="#3f2c28" opacity="0.55"/><rect x="1463" y="502" width="7" height="10" fill="#3f2c28" opacity="0.55"/><rect x="1443" y="528" width="7" height="10" fill="#3f2c28" opacity="0.55"/><rect x="1463" y="528" width="7" height="10" fill="#3f2c28" opacity="0.55"/><rect x="1334" y="457" width="40" height="93" fill="#e9dcc4" opacity="0.96"/><polygon points="1331,457 1377,457 1354,440" fill="#a34a2f"/><rect x="1342" y="473" width="7" height="10" fill="#3f2c28" opacity="0.55"/><rect x="1362" y="473" width="7" height="10" fill="#3f2c28" opacity="0.55"/><rect x="1342" y="499" width="7" height="10" fill="#3f2c28" opacity="0.55"/><rect x="1362" y="499" width="7" height="10" fill="#3f2c28" opacity="0.55"/><rect x="1342" y="525" width="7" height="10" fill="#3f2c28" opacity="0.55"/><rect x="1362" y="525" width="7" height="10" fill="#3f2c28" opacity="0.55"/><path d="M0 560 q 400 14 800 0 t 800 0" stroke="#ffffff" stroke-opacity="0.12" fill="none" stroke-width="3"/><path d="M0 620 q 400 14 800 0 t 800 0" stroke="#ffffff" stroke-opacity="0.12" fill="none" stroke-width="3"/><path d="M0 680 q 400 14 800 0 t 800 0" stroke="#ffffff" stroke-opacity="0.12" fill="none" stroke-width="3"/><path d="M0 740 q 400 14 800 0 t 800 0" stroke="#ffffff" stroke-opacity="0.12" fill="none" stroke-width="3"/><path d="M0 800 q 400 14 800 0 t 800 0" stroke="#ffffff" stroke-opacity="0.12" fill="none" stroke-width="3"/>
</svg>