<svg xmlns="http://www.w3.org/2000/svg" viewBox="0 0 1600 1000" preserveAspectRatio="xMidYMid slice">
  <defs>
    <linearGradient id="sky" x1="0" y1="0" x2="0" y2="1">
      <stop offset="0" stop-color="#ffdca0"/>
      <stop offset="1" stop-color="#e8865f"/>
    </linearGradient>
    <linearGradient id="sea" x1="0" y1="0" x2="0" y2="1">
      <stop offset="0" stop-color="#2a8ca0"/>
      <stop offset="1" stop-color="#3f2c28"/>
    </linearGradient>
  </defs>
  <rect width="1600" height="1000" fill="url(#sky)"/><circle cx="1153" cy="275" r="84" fill="#fff1cf" opacity="0.95"/><polygon points="0,1000 0,577 200,531 400,527 600,539 800,531 1000,526 1200,555 1400,530 1600,565 1600,1000" fill="#9a6b57" opacity="0.8"/><polygon points="0,1000 0,811 229,836 457,822 686,824 914,829 1143,836 1371,811 1600,795 1600,1000" fill="#6f4a3f"/><rect x="359" y="767" width="61" height="53" fill="#eaddc0" opacity="0.96"/><polygon points="356,767 422,767 389,747" fill="#a34a2f"/><rect x="1273" y="737" width="35" height="83" fill="#f7efe0" opacity="0.96"/><polygon points="1270,737 1311,737 1291,717" fill="#a34a2f"/><rect x="1281" y="753" width="7" height="10" fill="#3f2c28" opacity="0.55"/><rect x="1281" y="779" width="7" height="10" fill="#3f2c28" opacity="0.55"/><rect x="1281" y="805" width="7" height="10" fill="#3f2c28" opacity="0.55"/><rect x="529" y="701" width="47" height="119" fill="#eaddc0" opacity="0.96"/><polygon points="526,701 579,701 552,687" fill="#a34a2f"/><rect x="537" y="717" width="7" height="10" fill="#3f2c28" opacity="0.55"/><rect x="557" y="717" width="7" height="10" fill="#3f2c28" opacity="0.55"/><rect x="537" y="743" width="7" height="10" fill="#3f2c28" opacity="0.55"/><rect x="557" y="743" width="7" height="10" fill="#3f2c28" opacity="0.55"/><rect x="537" y="769" width="7" height="10" fill="#3f2c28" opacity="0.55"/><rect x="557" y="769" width="7" height="10" fill="#3f2c28" opacity="0.55"/><rect x="537" y="795" width="7" height="10" fill="#3f2c28" opacity="0.55"/><rect x="557" y="795" width="7" height="10" fill="#3f2c28" opacity="0.55"/><rect x="604" y="751" width="57" height="69" fill="#eaddc0" opacity="0.96"/><polygon points="601,751 664,751 633,735" fill="#a34a2f"/><rect x="612" y="767" width="7" height="10" fill="#3f2c28" opacity="0.55"/><rect x="632" y="767" width="7" height="10" fill="#3f2c28" opacity="0.55"/><rect x="612" y="793" width="7" height="10" fill="#3f2c28" opacity="0.55"/><rect x="632" y="793" width="7" height="10" fill="#3f2c28" opacity="0.55"/><rect x="915" y="724" width="50" height="96" fill="#f7efe0" opacity="0.96"/><polygon points="912,724 967,724 940,712" fill="#a34a2f"/><rect x="923" y="740" width="7" height="10" fill="#3f2c28" opacity="0.55"/><rect x="943" y="740" width="7" height="10" fill="#3f2c28" opacity="0.55"/><rect x="923" y="766" width="7" height="10" fill="#3f2c28" opacity="0.55"/><rect x="943" y="766" width="7" height="10" fill="#3f2c28" opacity="0.55"/><rect x="923" y="792" width="7" height="10" fill="#3f2c28" opacity="0.55"/><rect x="943" y="792" width="7" height="10" fill="#3f2c28" opacity="0.55"/><rect x="1026" y="754" width="44" height="66" fill="#e9dcc4" opacity="0.96"/><polygon points="1023,754 1073,754 1048,737" fill="#a34a2f"/><rect x="1034" y="770" width="7" height="10" fill="#3f2c28" opacity="0.55"/><rect x="1054" y="770" width="7" height="10" fill="#3f2c28" opacity="0.55"/><rect x="1034" y="796" width="7" height="10" fill="#3f2c28" opacity="0.55"/><rect x="1054" y="796" width="7" height="10" fill="#3f2c28" opacity="0.55"/><rect x="639" y="727" width="52" height="93" fill="#eaddc0" opacity="0.96"/><polygon points="636,727 694,727 665,705" fill="#a34a2f"/><rect x="647" y="743" width="7" height="10" fill="#3f2c28" opacity="0.55"/><rect x="667" y="743" width="7" height="10" fill="#3f2c28" opacity="0.55"/><rect x="647" y="769" width="7" height="10" fill="#3f2c28" opacity="0.55"/><rect x="667" y="769" width="7" height="10" fill="#3f2c28" opacity="0.55"/><rect x="647" y="795" width="7" height="10" fill="#3f2c28" opacity="0.55"/><rect x="667" y="795" width="7" height="10" fill="#3f2c28" opacity="0.55"/><rect x="828" y="775" width="41" height="45" fill="#eaddc0" opacity="0.96"/><polygon points="825,775 872,775 848,756" fill="#a34a2f"/><rect x="247" y="724" width="52" height="96" fill="#eaddc0" opacity="0.96"/><polygon points="244,724 302,724 273,707" fill="#a34a2f"/><rect x="255" y="740" width="7" height="10" fill="#3f2c28" opacity="0.55"/><rect x="275" y="740" width="7" height="10" fill="#3f2c28" opacity="0.55"/><rect x="255" y="766" width="7" height="10" fill="#3f2c28" opacity="0.55"/><rect x="275" y="766" width="7" height="10" fill="#3f2c28" opacity="0.55"/><rect x="255" y="792" width="7" height="10" fill="#3f2c28" opacity="0.55"/><rect x="275" y="792" width="7" height="10" fill="#3f2c28" opacity="0.55"/><rect x="1163" y="725" width="48" height="95" fill="#eaddc0" opacity="0.96"/><polygon points="1160,725 1215,725 1187,711" fill="#a34a2f"/><rect x="1171" y="741" width="7" height="10" fill="#3f2c28" opacity="0.55"/><rect x="1191" y="741" width="7" height="10" fill="#3f2c28" opacity="0.55"/><rect x="1171" y="767" width="7" height="10" fill="#3f2c28" opacity="0.55"/><rect x="1191" y="767" width="7" height="10" fill="#3f2c28" opacity="0.55"/><rect x="1171" y="793" width="7" height="10" fill="#3f2c28" opacity="0.55"/><rect x="1191" y="793" width="7" height="10" fill="#3f2c28" opacity="0.55"/><rect x="423" y="704" width="36" height="116" fill="#e9dcc4" opacity="0.96"/><polygon points="420,704 462,704 441,685" fill="#a34a2f"/><rect x="431" y="720" width="7" height="10" fill="#3f2c28" opacity="0.55"/><rect x="431" y="746" width="7" height="10" fill="#3f2c28" opacity="0.55"/><rect x="431" y="772" width="7" height="10" fill="#3f2c28" opacity="0.55"/><rect x="431" y="798" width="7" height="10" fill="#3f2c28" opacity="0.55"/><rect x="258" y="773" width="56" height="47" fill="#eaddc0" opacity="0.96"/><polygon points="255,773 316,773 285,757" fill="#a34a2f"/><rect x="678" y="777" width="43" height="43" fill="#f7efe0" opacity="0.96"/><polygon points="675,777 724,777 700,759" fill="#a34a2f"/><rect x="840" y="762" width="61" height="58" fill="#eaddc0" opacity="0.96"/><polygon points="837,762 904,762 871,743" fill="#a34a2f"/><rect x="1352" y="751" width="53" height="69" fill="#eaddc0" opacity="0.96"/><polygon points="1349,751 1409,751 1379,735" fill="#a34a2f"/><rect x="1360" y="767" width="7" height="10" fill="#3f2c28" opacity="0.55"/><rect x="1380" y="767" width="7" height="10" fill="#3f2c28" opacity="0.55"/><rect x="1360" y="793" width="7" height="10" fill="#3f2c28" opacity="0.55"/><rect x="1380" y="793" width="7" height="10" fill="#3f2c28" opacity="0.55"/><rect x="896" y="748" width="44" height="72" fill="#eaddc0" opacity="0.96"/><polygon points="893,748 943,748 918,731" fill="#a34a2f"/><rect x="904" y="764" width="7" height="10" fill="#3f2c28" opacity="0.55"/><rect x="924" y="764" width="7" height="10" fill="#3f2c28" opacity="0.55"/><rect x="904" y="790" width="7" height="10" fill="#3f2c28" opacity="0.55"/><rect x="924" y="790" width="7" height="10" fill="#3f2c28" opacity="0.55"/><rect x="1044" y="764" width="64" height="56" fill="#e9dcc4" opacity="0.96"/><polygon points="1041,764 1111,764 1076,745" fill="#a34a2f"/><rect x="593" y="719" width="56" height="101" fill="#eaddc0" opacity="0.96"/><polygon points="590,719 652,719 621,704" fill="#a34a2f"/><rect x="601" y="735" width="7" height="10" fill="#3f2c28" opacity="0.55"/><rect x="621" y="735" width="7" height="10" fill="#3f2c28" opacity="0.55"/><rect x="601" y="761" width="7" height="10" fill="#3f2c28" opacity="0.55"/><rect x="621" y="761" width="7" height="10" fill="#3f2c28" opacity="0.55"/><rect x="601" y="787" width="7" height="10" fill="#3f2c28" opacity="0.55"/><rect x="621" y="787" width="7" height="10" fill="#3f2c28" opacity="0.55"/><rect x="1244" y="775" width="48" height="45" fill="#f7efe0" opacity="0.96"/><polygon points="1241,775 1295,775 1268,762" fill="#a34a2f"/><rect x="1282" y="715" width="46" height="105" fill="#eaddc0" opacity="0.96"/><polygon points="1279,715 1330,715 1305,700" fill="#a34a2f"/><rect x="1290" y="731" width="7" height="10" fill="#3f2c28" opacity="0.55"/><rect x="1310" y="731" width="7" height="10" fill="#3f2c28" opacity="0.55"/><rect x="1290" y="757" width="7" height="10" fill="#3f2c28" opacity="0.55"/><rect x="1310" y="757" width="7" height="10" fill="#3f2c28" opacity="0.55"/><rect x="1290" y="783" width="7" height="10" fill="#3f2c28" opacity="0.55"/><rect x="1310" y="783" width="7" height="10" fill="#3f2c28" opacity="0.55"/><rect x="954" y="729" width="39" height="91" fill="#eaddc0" opacity="0.96"/><polygon points="951,729 996,729 974,709" fill="#a34a2f"/><rect x="962" y="745" width="7" height="10" fill="#3f2c28" opacity="0.55"/><rect x="982" y="745" width="7" height="10" fill="#3f2c28" opacity="0.55"/><rect x="962" y="771" width="7" height="10" fill="#3f2c28" opacity="0.55"/><rect x="982" y="771" width="7" height="10" fill="#3f2c28" opacity="0.55"/><rect x="962" y="797" width="7" height="10" fill="#3f2c28" opacity="0.55"/><rect x="982" y="797" width="7" height="10" fill="#3f2c28" opacity="0.55"/><rect x="1324" y="761" width="39" height="59" fill="#e9dcc4" opacity="0.96"/><polygon points="1321,761 1366,761 1344,748" fill="#a34a2f"/><rect x="1162" y="714" width="50" height="106" fill="#f7efe0" opacity="0.96"/><polygon points="1159,714 1215,714 1187,696" fill="#a34a2f"/><rect x="1170" y="730" width="7" height="10" fill="#3f2c28" opacity="0.55"/><rect x="1190" y="730" width="7" height="10" fill="#3f2c28" opacity="0.55"/><rect x="1170" y="756" width="7" height="10" fill="#3f2c28" opacity="0.55"/><rect x="1190" y="756" width="7" height="10" fill="#3f2c28" opacity="0.55"/><rect x="1170" y="782" width="7" height="10" fill="#3f2c28" opacity="0.55"/><rect x="1190" y="782" width="7" height="10" fill="#3f2c28" opacity="0.55"/><rect x="738" y="701" width="41" height="119" fill="#f7efe0" opacity="0.96"/><polygon points="735,701 782,701 758,684" fill="#a34a2f"/><rect x="746" y="717" width="7" height="10" fill="#3f2c28" opacity="0.55"/><rect x="766" y="717" width="7" height="10" fill="#3f2c28" opacity="0.55"/><rect x="746" y="743" width="7" height="10" fill="#3f2c28" opacity="0.55"/><rect x="766" y="743" width="7" height="10" fill="#3f2c28" opacity="0.55"/><rect x="746" y="769" width="7" height="10" fill="#3f2c28" opacity="0.55"/><rect x="766" y="769" width="7" height="10" fill="#3f2c28" opacity="0.55"/><rect x="746" y="795" width="7" height="10" fill="#3f2c28" opacity="0.55"/><rect x="766" y="795" width="7" height="10" fill="#3f2c28" opacity="0.55"/><rect x="1338" y="719" width="47" height="101" fill="#f7efe0" opacity="0.96"/><polygon points="1335,719 1388,719 1362,700" fill="#a34a2f"/><rect x="1346" y="735" width="7" height="10" fill="#3f2c28" opacity="0.55"/><rect x="1366" y="735" width="7" height="10" fill="#3f2c28" opacity="0.55"/><rect x="1346" y="761" width="7" height="10" fill="#3f2c28" opacity="0.55"/><rect x="1366" y="761" width="7" height="10" fill="#3f2c28" opacity="0.55"/><rect x="1346" y="787" width="7" height="10" fill="#3f2c28" opacity="0.55"/><rect x="1366" y="787" width="7" height="10" fill="#3f2c28" opacity="0.55"/><rect x="361" y="774" width="62" height="46" fill="#e9dcc4" opacity="0.96"/><polygon points="358,774 426,774 392,754" fill="#a34a2f"/><rect x="391" y="719" width="44" height="101" fill="#eaddc0" opacity="0.96"/><polygon points="388,719 439,719 413,698" fill="#a34a2f"/><rect x="399" y="735" width="7" height="10" fill="#3f2c28" opacity="0.55"/><rect x="419" y="735" width="7" height="10" fill="#3f2c28" opacity="0.55"/><rect x="399" y="761" width="7" height="10" fill="#3f2c28" opacity="0.55"/><rect x="419" y="761" width="7" height="10" fill="#3f2c28" opacity="0.55"/><rect x="399" y="787" width="7" height="10" fill="#3f2c28" opacity="0.55"/><rect x="419" y="787" width="7" height="10" fill="#3f2c28" opacity="0.55"/><rect x="881" y="721" width="58" height="99" fill="#f7efe0" opacity="0.96"/><polygon points="878,721 942,721 910,705" fill="#a34a2f"/><rect x="889" y="737" width="7" height="10" fill="#3f2c28" opacity="0.55"/><rect x="909" y="737" width="7" height="10" fill="#3f2c28" opacity="0.55"/><rect x="889" y="763" width="7" height="10" fill="#3f2c28" opacity="0.55"/><rect x="909" y="763" width="7" height="10" fill="#3f2c28" opacity="0.55"/><rect x="889" y="789" width="7" height="10" fill="#3f2c28" opacity="0.55"/><rect x="909" y="789" width="7" height="10" fill="#3f2c28" opacity="0.55"/><rect x="1025" y="759" width="48" height="61" fill="#eaddc0" opacity="0.96"/><polygon points="1022,759 1075,759 1048,742" fill="#a34a2f"/><rect x="1033" y="775" width="7" height="10" fill="#3f2c28" opacity="0.55"/><rect x="1053" y="775" width="7" height="10" fill="#3f2c28" opacity="0.55"/><rect x="1033" y="801" width="7" height="10" fill="#3f2c28" opacity="0.55"/><rect x="1053" y="801" width="7" height="10" fill="#3f2c28" opacity="0.55"/><rect x="1040" y="744" width="40" height="76" fill="#eaddc0" opacity="0.96"/><polygon points="1037,744 1084,744 1061,727" fill="#a34a2f"/><rect x="1048" y="760" width="7" height="10" fill="#3f2c28" opacity="0.55"/><rect x="1068" y="760" width="7" height="10" fill="#3f2c28" opacity="0.55"/><rect x="1048" y="786" width="7" height="10" fill="#3f2c28" opacity="0.55"/><rect x="1068" y="786" width="7" height="10" fill="#3f2c28" opacity="0.55"/><rect x="560" y="754" width="64" height="66" fill="#f7efe0" opacity="0.96"/><polygon points="557,754 627,754 592,741" fill="#a34a2f"/><rect x="568" y="770" width="7" height="10" fill="#3f2c28" opacity="0.55"/><rect x="588" y="770" width="7" height="10" fill="#3f2c28" opacity="0.55"/><rect x="608" y="770" width="7" height="10" fill="#3f2c28" opacity="0.55"/><rect x="568" y="796" width="7" height="10" fill="#3f2c28" opacity="0.55"/><rect x="588" y="796" width="7" height="10" fill="#3f2c28" opacity="0.55"/><rect x="608" y="796" width="7" height="10" fill="#3f2c28" opacity="0.55"/><rect x="845" y="749" width="49" height="71" fill="#eaddc0" opacity="0.96"/><polygon points="842,749 897,749 869,736" fill="#a34a2f"/><rect x="853" y="765" width="7" height="10" fill="#3f2c28" opacity="0.55"/><rect x="873" y="765" width="7" height="10" fill="#3f2c28" opacity="0.55"/><rect x="853" y="791" width="7" height="10" fill="#3f2c28" opacity="0.55"/><rect x="873" y="791" width="7" height="10" fill="#3f2c28" opacity="0.55"/><rect x="251" y="756" width="40" height="64" fill="#eaddc0" opacity="0.96"/><polygon points="248,756 294,756 271,735" fill="#a34a2f"/><rect x="259" y="772" width="7" height="10" fill="#3f2c28" opacity="0.55"/><rect x="279" y="772" width="7" height="10" fill="#3f2c28" opacity="0.55"/><rect x="259" y="798" width="7" height="10" fill="#3f2c28" opacity="0.55"/><rect x="279" y="798" width="7" height="10" fill="#3f2c28" opacity="0.55"/><rect x="398" y="741" width="57" height="79" fill="#e9dcc4" opacity="0.96"/><polygon points="395,741 458,741 426,720" fill="#a34a2f"/><rect x="406" y="757" width="7" height="10" fill="#3f2c28" opacity="0.55"/><rect x="426" y="757" width="7" height="10" fill="#3f2c28" opacity="0.55"/><rect x="406" y="783" width="7" height="10" fill="#3f2c28" opacity="0.55"/><rect x="426" y="783" width="7" height="10" fill="#3f2c28" opacity="0.55"/><rect x="688" y="710" width="64" height="110" fill="#f7efe0" opacity="0.96"/><polygon points="685,710 755,710 720,692" fill="#a34a2f"/><rect x="696" y="726" width="7" height="10" fill="#3f2c28" opacity="0.55"/><rect x="716" y="726" width="7" height="10" fill="#3f2c28" opacity="0.55"/><rect x="736" y="726" width="7" height="10" fill="#3f2c28" opacity="0.55"/><rect x="696" y="752" width="7" height="10" fill="#3f2c28" opacity="0.55"/><rect x="716" y="752" width="7" height="10" fill="#3f2c28" opacity="0.55"/><rect x="736" y="752" width="7" height="10" fill="#3f2c28" opacity="0.55"/><rect x="696" y="778" width="7" height="10" fill="#3f2c28" opacity="0.55"/><rect x="716" y="778" width="7" height="10" fill="#3f2c28" opacity="0.55"/><rect x="736" y="778" width="7" height="10" fill="#3f2c28" opacity="0.55"/><rect x="696" y="804" width="7" height="10" fill="#3f2c28" opacity="0.55"/><rect x="716" y="804" width="7" height="10" fill="#3f2c28" opacity="0.55"/><rect x="736" y="804" width="7" height="10" fill="#3f2c28" opacity="0.55"/><rect x="792" y="777" width="50" height="43" fill="#eaddc0" opacity="0.96"/><polygon points="789,777 845,777 817,757" fill="#a34a2f"/><rect x="964" y="660" width="41" height="160" fill="#eaddc0"/><polygon points="960,660 1009,660 984,626" fill="#a34a2f"/><rect x="972" y="684" width="10" height="18" fill="#3f2c28" opacity="0.5"/>
</svg>