<svg xmlns="http://www.w3.org/2000/svg" viewBox="0 0 1600 1000" preserveAspectRatio="xMidYMid slice">
  <defs>
    <linearGradient id="sky" x1="0" y1="0" x2="0" y2="1">
      <stop offset="0" stop-color="#d6e6ef"/>
      <stop offset="1" stop-color="#9ec7d8"/>
    </linearGradient>
    <linearGradient id="sea" x1="0" y1="0" x2="0" y2="1">
      <stop offset="0" stop-color="#3fae9a"/>
      <stop offset="1" stop-color="#4a6068"/>
    </linearGradient>
  </defs>
  <rect width="1600" height="1000" fill="url(#sky)"/><circle cx="1260" cy="219" r="102" fill="#fbf6e6" opacity="0.95"/><polygon points="0,1000 0,500 0,169 267,449 533,197 800,430 1067,177 1333,381 1600,236 1600,500 1600,1000" fill="#9fb0b8"/><polygon points="0,1000 0,620 0,423 229,580 457,405 686,590 914,369 1143,535 1371,398 1600,557 1600,620 1600,1000" fill="#6f8a90"/><polygon points="575,405 535,465 615,465" fill="#ffffff" opacity="0.85"/><polygon points="537,307 497,367 577,367" fill="#ffffff" opacity="0.85"/><polygon points="277,311 237,371 317,371" fill="#ffffff" opacity="0.85"/><polygon points="1411,349 1371,409 1451,409" fill="#ffffff" opacity="0.85"/><polygon points="969,365 929,425 1009,425" fill="#ffffff" opacity="0.85"/><rect x="0" y="720" width="1600" height="280" fill="url(#sea)"/><rect x="663" y="694" width="26" height="26" fill="#eef0e6"/><rect x="672" y="674" width="8" height="22" fill="#eef0e6"/>
</svg>