<svg xmlns="http://www.w3.org/2000/svg" viewBox="0 0 1600 1000" preserveAspectRatio="xMidYMid slice">
  <defs>
    <linearGradient id="sky" x1="0" y1="0" x2="0" y2="1">
      <stop offset="0" stop-color="#d6e6ef"/>
      <stop offset="1" stop-color="#9ec7d8"/>
    </linearGradient>
    <linearGradient id="sea" x1="0" y1="0" x2="0" y2="1">
      <stop offset="0" stop-color="#3fae9a"/>
      <stop offset="1" stop-color="#4a6068"/>
    </linearGradient>
  </defs>
  <rect width="1600" height="1000" fill="url(#sky)"/><circle cx="887" cy="207" r="80" fill="#fbf6e6" opacity="0.95"/><rect x="831" y="610" width="112" height="6" rx="3" fill="#fbf6e6" opacity="0.50"/><rect x="836" y="632" width="103" height="6" rx="3" fill="#fbf6e6" opacity="0.44"/><rect x="841" y="654" width="93" height="6" rx="3" fill="#fbf6e6" opacity="0.38"/><rect x="846" y="676" width="84" height="6" rx="3" fill="#fbf6e6" opacity="0.32"/><rect x="850" y="698" width="74" height="6" rx="3" fill="#fbf6e6" opacity="0.26"/><rect x="855" y="720" width="64" height="6" rx="3" fill="#fbf6e6" opacity="0.20"/><polygon points="0,1000 0,520 267,504 533,518 800,482 1067,517 1333,490 1600,505 1600,1000" fill="#9fb0b8" opacity="0.8"/><rect x="958" y="510" width="54" height="90" fill="#e9dcc4" opacity="0.96"/><polygon points="955,510 1015,510 985,490" fill="#a9542f"/><rect x="966" y="526" width="7" height="10" fill="#4a6068" opacity="0.55"/><rect x="986" y="526" width="7" height="10" fill="#4a6068" opacity="0.55"/><rect x="966" y="552" width="7" height="10" fill="#4a6068" opacity="0.55"/><rect x="986" y="552" width="7" height="10" fill="#4a6068" opacity="0.55"/><rect x="966" y="578" width="7" height="10" fill="#4a6068" opacity="0.55"/><rect x="986" y="578" width="7" height="10" fill="#4a6068" opacity="0.55"/><rect x="1328" y="534" width="40" height="66" fill="#eef0e6" opacity="0.96"/><polygon points="1325,534 1371,534 1348,514" fill="#a9542f"/><rect x="1336" y="550" width="7" height="10" fill="#4a6068" opacity="0.55"/><rect x="1356" y="550" width="7" height="10" fill="#4a6068" opacity="0.55"/><rect x="1336" y="576" width="7" height="10" fill="#4a6068" opacity="0.55"/><rect x="1356" y="576" width="7" height="10" fill="#4a6068" opacity="0.55"/><rect x="784" y="558" width="34" height="42" fill="#f7efe0" opacity="0.96"/><polygon points="781,558 821,558 801,539" fill="#a9542f"/><rect x="643" y="503" width="35" height="97" fill="#f7efe0" opacity="0.96"/><polygon points="640,503 681,503 661,483" fill="#a9542f"/><rect x="651" y="519" width="7" height="10" fill="#4a6068" opacity="0.55"/><rect x="651" y="545" width="7" height="10" fill="#4a6068" opacity="0.55"/><rect x="651" y="571" width="7" height="10" fill="#4a6068" opacity="0.55"/><rect x="1413" y="493" width="46" height="107" fill="#eef0e6" opacity="0.96"/><polygon points="1410,493 1462,493 1436,480" fill="#a9542f"/><rect x="1421" y="509" width="7" height="10" fill="#4a6068" opacity="0.55"/><rect x="1441" y="509" width="7" height="10" fill="#4a6068" opacity="0.55"/><rect x="1421" y="535" width="7" height="10" fill="#4a6068" opacity="0.55"/><rect x="1441" y="535" width="7" height="10" fill="#4a6068" opacity="0.55"/><rect x="1421" y="561" width="7" height="10" fill="#4a6068" opacity="0.55"/><rect x="1441" y="561" width="7" height="10" fill="#4a6068" opacity="0.55"/><rect x="957" y="534" width="55" height="66" fill="#f7efe0" opacity="0.96"/><polygon points="954,534 1014,534 984,517" fill="#a9542f"/><rect x="965" y="550" width="7" height="10" fill="#4a6068" opacity="0.55"/><rect x="985" y="550" width="7" height="10" fill="#4a6068" opacity="0.55"/><rect x="965" y="576" width="7" height="10" fill="#4a6068" opacity="0.55"/><rect x="985" y="576" width="7" height="10" fill="#4a6068" opacity="0.55"/><rect x="1181" y="530" width="38" height="70" fill="#eef0e6" opacity="0.96"/><polygon points="1178,530 1222,530 1200,514" fill="#a9542f"/><rect x="1189" y="546" width="7" height="10" fill="#4a6068" opacity="0.55"/><rect x="1189" y="572" width="7" height="10" fill="#4a6068" opacity="0.55"/><rect x="1086" y="524" width="35" height="76" fill="#eef0e6" opacity="0.96"/><polygon points="1083,524 1124,524 1103,512" fill="#a9542f"/><rect x="1094" y="540" width="7" height="10" fill="#4a6068" opacity="0.55"/><rect x="1094" y="566" width="7" height="10" fill="#4a6068" opacity="0.55"/><rect x="213" y="514" width="60" height="86" fill="#f7efe0" opacity="0.96"/><polygon points="210,514 277,514 243,496" fill="#a9542f"/><rect x="221" y="530" width="7" height="10" fill="#4a6068" opacity="0.55"/><rect x="241" y="530" width="7" height="10" fill="#4a6068" opacity="0.55"/><rect x="261" y="530" width="7" height="10" fill="#4a6068" opacity="0.55"/><rect x="221" y="556" width="7" height="10" fill="#4a6068" opacity="0.55"/><rect x="241" y="556" width="7" height="10" fill="#4a6068" opacity="0.55"/><rect x="261" y="556" width="7" height="10" fill="#4a6068" opacity="0.55"/><rect x="221" y="582" width="7" height="10" fill="#4a6068" opacity="0.55"/><rect x="241" y="582" width="7" height="10" fill="#4a6068" opacity="0.55"/><rect x="261" y="582" width="7" height="10" fill="#4a6068" opacity="0.55"/><rect x="393" y="530" width="60" height="70" fill="#e9dcc4" opacity="0.96"/><polygon points="390,530 456,530 423,508" fill="#a9542f"/><rect x="401" y="546" width="7" height="10" fill="#4a6068" opacity="0.55"/><rect x="421" y="546" width="7" height="10" fill="#4a6068" opacity="0.55"/><rect x="441" y="546" width="7" height="10" fill="#4a6068" opacity="0.55"/><rect x="401" y="572" width="7" height="10" fill="#4a6068" opacity="0.55"/><rect x="421" y="572" width="7" height="10" fill="#4a6068" opacity="0.55"/><rect x="441" y="572" width="7" height="10" fill="#4a6068" opacity="0.55"/><rect x="206" y="543" width="55" height="57" fill="#eef0e6" opacity="0.96"/><polygon points="203,543 265,543 234,525" fill="#a9542f"/><rect x="396" y="507" width="57" height="93" fill="#f7efe0" opacity="0.96"/><polygon points="393,507 456,507 424,493" fill="#a9542f"/><rect x="404" y="523" width="7" height="10" fill="#4a6068" opacity="0.55"/><rect x="424" y="523" width="7" height="10" fill="#4a6068" opacity="0.55"/><rect x="404" y="549" width="7" height="10" fill="#4a6068" opacity="0.55"/><rect x="424" y="549" width="7" height="10" fill="#4a6068" opacity="0.55"/><rect x="404" y="575" width="7" height="10" fill="#4a6068" opacity="0.55"/><rect x="424" y="575" width="7" height="10" fill="#4a6068" opacity="0.55"/><rect x="700" y="482" width="56" height="118" fill="#eef0e6" opacity="0.96"/><polygon points="697,482 758,482 727,467" fill="#a9542f"/><rect x="708" y="498" width="7" height="10" fill="#4a6068" opacity="0.55"/><rect x="728" y="498" width="7" height="10" fill="#4a6068" opacity="0.55"/><rect x="708" y="524" width="7" height="10" fill="#4a6068" opacity="0.55"/><rect x="728" y="524" width="7" height="10" fill="#4a6068" opacity="0.55"/><rect x="708" y="550" width="7" height="10" fill="#4a6068" opacity="0.55"/><rect x="728" y="550" width="7" height="10" fill="#4a6068" opacity="0.55"/><rect x="708" y="576" width="7" height="10" fill="#4a6068" opacity="0.55"/><rect x="728" y="576" width="7" height="10" fill="#4a6068" opacity="0.55"/><rect x="383" y="499" width="59" height="101" fill="#f7efe0" opacity="0.96"/><polygon points="380,499 445,499 412,483" fill="#a9542f"/><rect x="391" y="515" width="7" height="10" fill="#4a6068" opacity="0.55"/><rect x="411" y="515" width="7" height="10" fill="#4a6068" opacity="0.55"/><rect x="431" y="515" width="7" height="10" fill="#4a6068" opacity="0.55"/><rect x="391" y="541" width="7" height="10" fill="#4a6068" opacity="0.55"/><rect x="411" y="541" width="7" height="10" fill="#4a6068" opacity="0.55"/><rect x="431" y="541" width="7" height="10" fill="#4a6068" opacity="0.55"/><rect x="391" y="567" width="7" height="10" fill="#4a6068" opacity="0.55"/><rect x="411" y="567" width="7" height="10" fill="#4a6068" opacity="0.55"/><rect x="431" y="567" width="7" height="10" fill="#4a6068" opacity="0.55"/><rect x="639" y="535" width="60" height="65" fill="#eef0e6" opacity="0.96"/><polygon points="636,535 702,535 669,513" fill="#a9542f"/><rect x="647" y="551" width="7" height="10" fill="#4a6068" opacity="0.55"/><rect x="667" y="551" width="7" height="10" fill="#4a6068" opacity="0.55"/><rect x="687" y="551" width="7" height="10" fill="#4a6068" opacity="0.55"/><rect x="647" y="577" width="7" height="10" fill="#4a6068" opacity="0.55"/><rect x="667" y="577" width="7" height="10" fill="#4a6068" opacity="0.55"/><rect x="687" y="577" width="7" height="10" fill="#4a6068" opacity="0.55"/><rect x="1240" y="511" width="39" height="89" fill="#e9dcc4" opacity="0.96"/><polygon points="1237,511 1282,511 1259,492" fill="#a9542f"/><rect x="1248" y="527" width="7" height="10" fill="#4a6068" opacity="0.55"/><rect x="1268" y="527" width="7" height="10" fill="#4a6068" opacity="0.55"/><rect x="1248" y="553" width="7" height="10" fill="#4a6068" opacity="0.55"/><rect x="1268" y="553" width="7" height="10" fill="#4a6068" opacity="0.55"/><rect x="1248" y="579" width="7" height="10" fill="#4a6068" opacity="0.55"/><rect x="1268" y="579" width="7" height="10" fill="#4a6068" opacity="0.55"/><rect x="406" y="493" width="52" height="107" fill="#e9dcc4" opacity="0.96"/><polygon points="403,493 461,493 432,480" fill="#a9542f"/><rect x="414" y="509" width="7" height="10" fill="#4a6068" opacity="0.55"/><rect x="434" y="509" width="7" height="10" fill="#4a6068" opacity="0.55"/><rect x="414" y="535" width="7" height="10" fill="#4a6068" opacity="0.55"/><rect x="434" y="535" width="7" height="10" fill="#4a6068" opacity="0.55"/><rect x="414" y="561" width="7" height="10" fill="#4a6068" opacity="0.55"/><rect x="434" y="561" width="7" height="10" fill="#4a6068" opacity="0.55"/><rect x="1214" y="489" width="42" height="111" fill="#eef0e6" opacity="0.96"/><polygon points="1211,489 1259,489 1235,470" fill="#a9542f"/><rect x="1222" y="505" width="7" height="10" fill="#4a6068" opacity="0.55"/><rect x="1242" y="505" width="7" height="10" fill="#4a6068" opacity="0.55"/><rect x="1222" y="531" width="7" height="10" fill="#4a6068" opacity="0.55"/><rect x="1242" y="531" width="7" height="10" fill="#4a6068" opacity="0.55"/><rect x="1222" y="557" width="7" height="10" fill="#4a6068" opacity="0.55"/><rect x="1242" y="557" width="7" height="10" fill="#4a6068" opacity="0.55"/><rect x="1222" y="583" width="7" height="10" fill="#4a6068" opacity="0.55"/><rect x="1242" y="583" width="7" height="10" fill="#4a6068" opacity="0.55"/><rect x="634" y="528" width="37" height="72" fill="#eef0e6" opacity="0.96"/><polygon points="631,528 674,528 652,507" fill="#a9542f"/><rect x="642" y="544" width="7" height="10" fill="#4a6068" opacity="0.55"/><rect x="642" y="570" width="7" height="10" fill="#4a6068" opacity="0.55"/><rect x="959" y="557" width="53" height="43" fill="#eef0e6" opacity="0.96"/><polygon points="956,557 1015,557 985,544" fill="#a9542f"/><rect x="665" y="498" width="49" height="102" fill="#eef0e6" opacity="0.96"/><polygon points="662,498 717,498 689,484" fill="#a9542f"/><rect x="673" y="514" width="7" height="10" fill="#4a6068" opacity="0.55"/><rect x="693" y="514" width="7" height="10" fill="#4a6068" opacity="0.55"/><rect x="673" y="540" width="7" height="10" fill="#4a6068" opacity="0.55"/><rect x="693" y="540" width="7" height="10" fill="#4a6068" opacity="0.55"/><rect x="673" y="566" width="7" height="10" fill="#4a6068" opacity="0.55"/><rect x="693" y="566" width="7" height="10" fill="#4a6068" opacity="0.55"/><rect x="816" y="500" width="52" height="100" fill="#eef0e6" opacity="0.96"/><polygon points="813,500 871,500 842,483" fill="#a9542f"/><rect x="824" y="516" width="7" height="10" fill="#4a6068" opacity="0.55"/><rect x="844" y="516" width="7" height="10" fill="#4a6068" opacity="0.55"/><rect x="824" y="542" width="7" height="10" fill="#4a6068" opacity="0.55"/><rect x="844" y="542" width="7" height="10" fill="#4a6068" opacity="0.55"/><rect x="824" y="568" width="7" height="10" fill="#4a6068" opacity="0.55"/><rect x="844" y="568" width="7" height="10" fill="#4a6068" opacity="0.55"/><rect x="786" y="482" width="58" height="118" fill="#eef0e6" opacity="0.96"/><polygon points="783,482 847,482 815,468" fill="#a9542f"/><rect x="794" y="498" width="7" height="10" fill="#4a6068" opacity="0.55"/><rect x="814" y="498" width="7" height="10" fill="#4a6068" opacity="0.55"/><rect x="794" y="524" width="7" height="10" fill="#4a6068" opacity="0.55"/><rect x="814" y="524" width="7" height="10" fill="#4a6068" opacity="0.55"/><rect x="794" y="550" width="7" height="10" fill="#4a6068" opacity="0.55"/><rect x="814" y="550" width="7" height="10" fill="#4a6068" opacity="0.55"/><rect x="794" y="576" width="7" height="10" fill="#4a6068" opacity="0.55"/><rect x="814" y="576" width="7" height="10" fill="#4a6068" opacity="0.55"/><rect x="897" y="541" width="63" height="59" fill="#eef0e6" opacity="0.96"/><polygon points="894,541 963,541 929,526" fill="#a9542f"/><rect x="814" y="548" width="53" height="52" fill="#eef0e6" opacity="0.96"/><polygon points="811,548 871,548 841,528" fill="#a9542f"/><rect x="916" y="530" width="37" height="70" fill="#eef0e6" opacity="0.96"/><polygon points="913,530 956,530 935,514" fill="#a9542f"/><rect x="924" y="546" width="7" height="10" fill="#4a6068" opacity="0.55"/><rect x="924" y="572" width="7" height="10" fill="#4a6068" opacity="0.55"/><rect x="441" y="537" width="35" height="63" fill="#eef0e6" opacity="0.96"/><polygon points="438,537 479,537 459,522" fill="#a9542f"/><rect x="449" y="553" width="7" height="10" fill="#4a6068" opacity="0.55"/><rect x="449" y="579" width="7" height="10" fill="#4a6068" opacity="0.55"/><rect x="1011" y="521" width="35" height="79" fill="#f7efe0" opacity="0.96"/><polygon points="1008,521 1049,521 1029,501" fill="#a9542f"/><rect x="1019" y="537" width="7" height="10" fill="#4a6068" opacity="0.55"/><rect x="1019" y="563" width="7" height="10" fill="#4a6068" opacity="0.55"/><rect x="540" y="544" width="38" height="56" fill="#f7efe0" opacity="0.96"/><polygon points="537,544 581,544 559,531" fill="#a9542f"/><rect x="179" y="483" width="63" height="117" fill="#e9dcc4" opacity="0.96"/><polygon points="176,483 245,483 211,470" fill="#a9542f"/><rect x="187" y="499" width="7" height="10" fill="#4a6068" opacity="0.55"/><rect x="207" y="499" width="7" height="10" fill="#4a6068" opacity="0.55"/><rect x="227" y="499" width="7" height="10" fill="#4a6068" opacity="0.55"/><rect x="187" y="525" width="7" height="10" fill="#4a6068" opacity="0.55"/><rect x="207" y="525" width="7" height="10" fill="#4a6068" opacity="0.55"/><rect x="227" y="525" width="7" height="10" fill="#4a6068" opacity="0.55"/><rect x="187" y="551" width="7" height="10" fill="#4a6068" opacity="0.55"/><rect x="207" y="551" width="7" height="10" fill="#4a6068" opacity="0.55"/><rect x="227" y="551" width="7" height="10" fill="#4a6068" opacity="0.55"/><rect x="187" y="577" width="7" height="10" fill="#4a6068" opacity="0.55"/><rect x="207" y="577" width="7" height="10" fill="#4a6068" opacity="0.55"/><rect x="227" y="577" width="7" height="10" fill="#4a6068" opacity="0.55"/><rect x="1265" y="502" width="54" height="98" fill="#e9dcc4" opacity="0.96"/><polygon points="1262,502 1322,502 1292,489" fill="#a9542f"/><rect x="1273" y="518" width="7" height="10" fill="#4a6068" opacity="0.55"/><rect x="1293" y="518" width="7" height="10" fill="#4a6068" opacity="0.55"/><rect x="1273" y="544" width="7" height="10" fill="#4a6068" opacity="0.55"/><rect x="1293" y="544" width="7" height="10" fill="#4a6068" opacity="0.55"/><rect x="1273" y="570" width="7" height="10" fill="#4a6068" opacity="0.55"/><rect x="1293" y="570" width="7" height="10" fill="#4a6068" opacity="0.55"/><rect x="898" y="518" width="63" height="82" fill="#f7efe0" opacity="0.96"/><polygon points="895,518 964,518 929,503" fill="#a9542f"/><rect x="906" y="534" width="7" height="10" fill="#4a6068" opacity="0.55"/><rect x="926" y="534" width="7" height="10" fill="#4a6068" opacity="0.55"/><rect x="946" y="534" width="7" height="10" fill="#4a6068" opacity="0.55"/><rect x="906" y="560" width="7" height="10" fill="#4a6068" opacity="0.55"/><rect x="926" y="560" width="7" height="10" fill="#4a6068" opacity="0.55"/><rect x="946" y="560" width="7" height="10" fill="#4a6068" opacity="0.55"/><rect x="490" y="496" width="37" height="104" fill="#eef0e6" opacity="0.96"/><polygon points="487,496 530,496 508,477" fill="#a9542f"/><rect x="498" y="512" width="7" height="10" fill="#4a6068" opacity="0.55"/><rect x="498" y="538" width="7" height="10" fill="#4a6068" opacity="0.55"/><rect x="498" y="564" width="7" height="10" fill="#4a6068" opacity="0.55"/><rect x="244" y="531" width="58" height="69" fill="#e9dcc4" opacity="0.96"/><polygon points="241,531 305,531 273,517" fill="#a9542f"/><rect x="252" y="547" width="7" height="10" fill="#4a6068" opacity="0.55"/><rect x="272" y="547" width="7" height="10" fill="#4a6068" opacity="0.55"/><rect x="252" y="573" width="7" height="10" fill="#4a6068" opacity="0.55"/><rect x="272" y="573" width="7" height="10" fill="#4a6068" opacity="0.55"/><rect x="234" y="556" width="52" height="44" fill="#f7efe0" opacity="0.96"/><polygon points="231,556 290,556 260,542" fill="#a9542f"/><rect x="1051" y="543" width="39" height="57" fill="#eef0e6" opacity="0.96"/><polygon points="1048,543 1092,543 1070,529" fill="#a9542f"/><rect x="979" y="493" width="49" height="107" fill="#f7efe0" opacity="0.96"/><polygon points="976,493 1031,493 1003,473" fill="#a9542f"/><rect x="987" y="509" width="7" height="10" fill="#4a6068" opacity="0.55"/><rect x="1007" y="509" width="7" height="10" fill="#4a6068" opacity="0.55"/><rect x="987" y="535" width="7" height="10" fill="#4a6068" opacity="0.55"/><rect x="1007" y="535" width="7" height="10" fill="#4a6068" opacity="0.55"/><rect x="987" y="561" width="7" height="10" fill="#4a6068" opacity="0.55"/><rect x="1007" y="561" width="7" height="10" fill="#4a6068" opacity="0.55"/><rect x="1318" y="509" width="55" height="91" fill="#eef0e6" opacity="0.96"/><polygon points="1315,509 1375,509 1345,492" fill="#a9542f"/><rect x="1326" y="525" width="7" height="10" fill="#4a6068" opacity="0.55"/><rect x="1346" y="525" width="7" height="10" fill="#4a6068" opacity="0.55"/><rect x="1326" y="551" width="7" height="10" fill="#4a6068" opacity="0.55"/><rect x="1346" y="551" width="7" height="10" fill="#4a6068" opacity="0.55"/><rect x="1326" y="577" width="7" height="10" fill="#4a6068" opacity="0.55"/><rect x="1346" y="577" width="7" height="10" fill="#4a6068" opacity="0.55"/><rect x="988" y="496" width="63" height="104" fill="#eef0e6" opacity="0.96"/><polygon points="985,496 1054,496 1020,484" fill="#a9542f"/><rect x="996" y="512" width="7" height="10" fill="#4a6068" opacity="0.55"/><rect x="1016" y="512" width="7" height="10" fill="#4a6068" opacity="0.55"/><rect x="1036" y="512" width="7" height="10" fill="#4a6068" opacity="0.55"/><rect x="996" y="538" width="7" height="10" fill="#4a6068" opacity="0.55"/><rect x="1016" y="538" width="7" height="10" fill="#4a6068" opacity="0.55"/><rect x="1036" y="538" width="7" height="10" fill="#4a6068" opacity="0.55"/><rect x="996" y="564" width="7" height="10" fill="#4a6068" opacity="0.55"/><rect x="1016" y="564" width="7" height="10" fill="#4a6068" opacity="0.55"/><rect x="1036" y="564" width="7" height="10" fill="#4a6068" opacity="0.55"/><rect x="330" y="548" width="62" height="52" fill="#eef0e6" opacity="0.96"/><polygon points="327,548 395,548 361,531" fill="#a9542f"/><rect x="157" y="517" width="52" height="83" fill="#eef0e6" opacity="0.96"/><polygon points="154,517 212,517 183,503" fill="#a9542f"/><rect x="165" y="533" width="7" height="10" fill="#4a6068" opacity="0.55"/><rect x="185" y="533" width="7" height="10" fill="#4a6068" opacity="0.55"/><rect x="165" y="559" width="7" height="10" fill="#4a6068" opacity="0.55"/><rect x="185" y="559" width="7" height="10" fill="#4a6068" opacity="0.55"/><rect x="165" y="585" width="7" height="10" fill="#4a6068" opacity="0.55"/><rect x="185" y="585" width="7" height="10" fill="#4a6068" opacity="0.55"/><rect x="1233" y="560" width="34" height="40" fill="#eef0e6" opacity="0.96"/><polygon points="1230,560 1271,560 1250,543" fill="#a9542f"/><rect x="239" y="527" width="34" height="73" fill="#e9dcc4" opacity="0.96"/><polygon points="236,527 276,527 256,506" fill="#a9542f"/><rect x="247" y="543" width="7" height="10" fill="#4a6068" opacity="0.55"/><rect x="247" y="569" width="7" height="10" fill="#4a6068" opacity="0.55"/><rect x="1329" y="517" width="61" height="83" fill="#eef0e6" opacity="0.96"/><polygon points="1326,517 1393,517 1360,498" fill="#a9542f"/><rect x="1337" y="533" width="7" height="10" fill="#4a6068" opacity="0.55"/><rect x="1357" y="533" width="7" height="10" fill="#4a6068" opacity="0.55"/><rect x="1377" y="533" width="7" height="10" fill="#4a6068" opacity="0.55"/><rect x="1337" y="559" width="7" height="10" fill="#4a6068" opacity="0.55"/><rect x="1357" y="559" width="7" height="10" fill="#4a6068" opacity="0.55"/><rect x="1377" y="559" width="7" height="10" fill="#4a6068" opacity="0.55"/><rect x="1337" y="585" width="7" height="10" fill="#4a6068" opacity="0.55"/><rect x="1357" y="585" width="7" height="10" fill="#4a6068" opacity="0.55"/><rect x="1377" y="585" width="7" height="10" fill="#4a6068" opacity="0.55"/><rect x="285" y="527" width="57" height="73" fill="#eef0e6" opacity="0.96"/><polygon points="282,527 344,527 313,507" fill="#a9542f"/><rect x="293" y="543" width="7" height="10" fill="#4a6068" opacity="0.55"/><rect x="313" y="543" width="7" height="10" fill="#4a6068" opacity="0.55"/><rect x="293" y="569" width="7" height="10" fill="#4a6068" opacity="0.55"/><rect x="313" y="569" width="7" height="10" fill="#4a6068" opacity="0.55"/><rect x="355" y="488" width="37" height="112" fill="#eef0e6" opacity="0.96"/><polygon points="352,488 394,488 373,469" fill="#a9542f"/><rect x="363" y="504" width="7" height="10" fill="#4a6068" opacity="0.55"/><rect x="363" y="530" width="7" height="10" fill="#4a6068" opacity="0.55"/><rect x="363" y="556" width="7" height="10" fill="#4a6068" opacity="0.55"/><rect x="363" y="582" width="7" height="10" fill="#4a6068" opacity="0.55"/><rect x="784" y="493" width="59" height="107" fill="#f7efe0" opacity="0.96"/><polygon points="781,493 847,493 814,473" fill="#a9542f"/><rect x="792" y="509" width="7" height="10" fill="#4a6068" opacity="0.55"/><rect x="812" y="509" width="7" height="10" fill="#4a6068" opacity="0.55"/><rect x="832" y="509" width="7" height="10" fill="#4a6068" opacity="0.55"/><rect x="792" y="535" width="7" height="10" fill="#4a6068" opacity="0.55"/><rect x="812" y="535" width="7" height="10" fill="#4a6068" opacity="0.55"/><rect x="832" y="535" width="7" height="10" fill="#4a6068" opacity="0.55"/><rect x="792" y="561" width="7" height="10" fill="#4a6068" opacity="0.55"/><rect x="812" y="561" width="7" height="10" fill="#4a6068" opacity="0.55"/><rect x="832" y="561" width="7" height="10" fill="#4a6068" opacity="0.55"/><rect x="693" y="525" width="59" height="75" fill="#e9dcc4" opacity="0.96"/><polygon points="690,525 755,525 723,509" fill="#a9542f"/><rect x="701" y="541" width="7" height="10" fill="#4a6068" opacity="0.55"/><rect x="721" y="541" width="7" height="10" fill="#4a6068" opacity="0.55"/><rect x="741" y="541" width="7" height="10" fill="#4a6068" opacity="0.55"/><rect x="701" y="567" width="7" height="10" fill="#4a6068" opacity="0.55"/><rect x="721" y="567" width="7" height="10" fill="#4a6068" opacity="0.55"/><rect x="741" y="567" width="7" height="10" fill="#4a6068" opacity="0.55"/><rect x="410" y="548" width="43" height="52" fill="#eef0e6" opacity="0.96"/><polygon points="407,548 456,548 432,535" fill="#a9542f"/><rect x="416" y="543" width="55" height="57" fill="#eef0e6" opacity="0.96"/><polygon points="413,543 474,543 444,523" fill="#a9542f"/><rect x="234" y="541" width="52" height="59" fill="#e9dcc4" opacity="0.96"/><polygon points="231,541 289,541 260,525" fill="#a9542f"/><rect x="267" y="532" width="59" height="68" fill="#f7efe0" opacity="0.96"/><polygon points="264,532 328,532 296,516" fill="#a9542f"/><rect x="275" y="548" width="7" height="10" fill="#4a6068" opacity="0.55"/><rect x="295" y="548" width="7" height="10" fill="#4a6068" opacity="0.55"/><rect x="315" y="548" width="7" height="10" fill="#4a6068" opacity="0.55"/><rect x="275" y="574" width="7" height="10" fill="#4a6068" opacity="0.55"/><rect x="295" y="574" width="7" height="10" fill="#4a6068" opacity="0.55"/><rect x="315" y="574" width="7" height="10" fill="#4a6068" opacity="0.55"/><rect x="225" y="530" width="61" height="70" fill="#e9dcc4" opacity="0.96"/><polygon points="222,530 289,530 255,514" fill="#a9542f"/><rect x="233" y="546" width="7" height="10" fill="#4a6068" opacity="0.55"/><rect x="253" y="546" width="7" height="10" fill="#4a6068" opacity="0.55"/><rect x="273" y="546" width="7" height="10" fill="#4a6068" opacity="0.55"/><rect x="233" y="572" width="7" height="10" fill="#4a6068" opacity="0.55"/><rect x="253" y="572" width="7" height="10" fill="#4a6068" opacity="0.55"/><rect x="273" y="572" width="7" height="10" fill="#4a6068" opacity="0.55"/><rect x="1112" y="530" width="37" height="70" fill="#eef0e6" opacity="0.96"/><polygon points="1109,530 1153,530 1131,511" fill="#a9542f"/><rect x="1120" y="546" width="7" height="10" fill="#4a6068" opacity="0.55"/><rect x="1120" y="572" width="7" height="10" fill="#4a6068" opacity="0.55"/><rect x="903" y="549" width="36" height="51" fill="#f7efe0" opacity="0.96"/><polygon points="900,549 942,549 921,536" fill="#a9542f"/><rect x="155" y="537" width="49" height="63" fill="#e9dcc4" opacity="0.96"/><polygon points="152,537 206,537 179,517" fill="#a9542f"/><rect x="163" y="553" width="7" height="10" fill="#4a6068" opacity="0.55"/><rect x="183" y="553" width="7" height="10" fill="#4a6068" opacity="0.55"/><rect x="163" y="579" width="7" height="10" fill="#4a6068" opacity="0.55"/><rect x="183" y="579" width="7" height="10" fill="#4a6068" opacity="0.55"/><rect x="1155" y="512" width="39" height="88" fill="#eef0e6" opacity="0.96"/><polygon points="1152,512 1197,512 1175,491" fill="#a9542f"/><rect x="1163" y="528" width="7" height="10" fill="#4a6068" opacity="0.55"/><rect x="1183" y="528" width="7" height="10" fill="#4a6068" opacity="0.55"/><rect x="1163" y="554" width="7" height="10" fill="#4a6068" opacity="0.55"/><rect x="1183" y="554" width="7" height="10" fill="#4a6068" opacity="0.55"/><rect x="1163" y="580" width="7" height="10" fill="#4a6068" opacity="0.55"/><rect x="1183" y="580" width="7" height="10" fill="#4a6068" opacity="0.55"/><rect x="1432" y="523" width="39" height="77" fill="#eef0e6" opacity="0.96"/><polygon points="1429,523 1474,523 1452,502" fill="#a9542f"/><rect x="1440" y="539" width="7" height="10" fill="#4a6068" opacity="0.55"/><rect x="1460" y="539" width="7" height="10" fill="#4a6068" opacity="0.55"/><rect x="1440" y="565" width="7" height="10" fill="#4a6068" opacity="0.55"/><rect x="1460" y="565" width="7" height="10" fill="#4a6068" opacity="0.55"/><rect x="886" y="400" width="41" height="200" fill="#eef0e6"/><polygon points="882,400 931,400 907,366" fill="#a9542f"/><rect x="894" y="424" width="10" height="18" fill="#4a6068" opacity="0.5"/><rect x="0" y="600" width="1600" height="400" fill="url(#sea)"/><path d="M893 680 l62 0 l-10 16 l-42 0 z" fill="#eef0e6"/><rect x="922" y="640" width="3" height="40" fill="#4a6068"/><polygon points="924,640 924,674 946,672" fill="#3fae9a" opacity="0.9"/><path d="M1181 656 l56 0 l-10 16 l-36 0 z" fill="#eef0e6"/><rect x="1207" y="616" width="3" height="40" fill="#4a6068"/><polygon points="1209,616 1209,650 1231,648" fill="#3fae9a" opacity="0.9"/><path d="M276 638 l66 0 l-10 16 l-46 0 z" fill="#eef0e6"/><rect x="307" y="598" width="3" height="40" fill="#4a6068"/><polygon points="309,598 309,632 331,630" fill="#3fae9a" opacity="0.9"/><path d="M1232 691 l75 0 l-10 16 l-55 0 z" fill="#eef0e6"/><rect x="1268" y="651" width="3" height="40" fill="#4a6068"/><polygon points="1270,651 1270,685 1292,683" fill="#3fae9a" opacity="0.9"/>
</svg>